<?xml version="1.0" encoding="utf-8" standalone="no"?>
<!DOCTYPE svg PUBLIC "-//W3C//DTD SVG 1.1//EN"
  "http://www.w3.org/Graphics/SVG/1.1/DTD/svg11.dtd">
<!-- Created with matplotlib (https://matplotlib.org/) -->
<svg height="288pt" version="1.1" viewBox="0 0 1296 288" width="1296pt" xmlns="http://www.w3.org/2000/svg" xmlns:xlink="http://www.w3.org/1999/xlink">
 <defs>
  <style type="text/css">
*{stroke-linecap:butt;stroke-linejoin:round;white-space:pre;}
  </style>
 </defs>
 <g id="figure_1">
  <g id="patch_1">
   <path d="M 0 288 
L 1296 288 
L 1296 0 
L 0 0 
z
" style="fill:#ffffff;"/>
  </g>
  <g id="axes_1">
   <g id="patch_2">
    <path d="M 162 256.32 
L 1166.4 256.32 
L 1166.4 34.56 
L 162 34.56 
z
" style="fill:#ffffff;"/>
   </g>
   <g id="matplotlib.axis_1">
    <g id="xtick_1">
     <g id="line2d_1">
      <path clip-path="url(#p47321ed789)" d="M 166.22189 256.32 
L 166.22189 34.56 
" style="fill:none;stroke:#cccccc;stroke-linecap:round;stroke-width:0.8;"/>
     </g>
     <g id="line2d_2"/>
     <g id="text_1">
      <!-- Acute Care -->
      <defs>
       <path d="M -0.140625 0 
L 27.34375 71.578125 
L 37.546875 71.578125 
L 66.84375 0 
L 56.0625 0 
L 47.703125 21.6875 
L 17.78125 21.6875 
L 9.90625 0 
z
M 20.515625 29.390625 
L 44.78125 29.390625 
L 37.3125 49.21875 
Q 33.890625 58.25 32.234375 64.0625 
Q 30.859375 57.171875 28.375 50.390625 
z
" id="ArialMT-65"/>
       <path d="M 40.4375 19 
L 49.078125 17.875 
Q 47.65625 8.9375 41.8125 3.875 
Q 35.984375 -1.171875 27.484375 -1.171875 
Q 16.84375 -1.171875 10.375 5.78125 
Q 3.90625 12.75 3.90625 25.734375 
Q 3.90625 34.125 6.6875 40.421875 
Q 9.46875 46.734375 15.15625 49.875 
Q 20.84375 53.03125 27.546875 53.03125 
Q 35.984375 53.03125 41.359375 48.75 
Q 46.734375 44.484375 48.25 36.625 
L 39.703125 35.296875 
Q 38.484375 40.53125 35.375 43.15625 
Q 32.28125 45.796875 27.875 45.796875 
Q 21.234375 45.796875 17.078125 41.03125 
Q 12.9375 36.28125 12.9375 25.984375 
Q 12.9375 15.53125 16.9375 10.796875 
Q 20.953125 6.0625 27.390625 6.0625 
Q 32.5625 6.0625 36.03125 9.234375 
Q 39.5 12.40625 40.4375 19 
z
" id="ArialMT-99"/>
       <path d="M 40.578125 0 
L 40.578125 7.625 
Q 34.515625 -1.171875 24.125 -1.171875 
Q 19.53125 -1.171875 15.546875 0.578125 
Q 11.578125 2.34375 9.640625 5 
Q 7.71875 7.671875 6.9375 11.53125 
Q 6.390625 14.109375 6.390625 19.734375 
L 6.390625 51.859375 
L 15.1875 51.859375 
L 15.1875 23.09375 
Q 15.1875 16.21875 15.71875 13.8125 
Q 16.546875 10.359375 19.234375 8.375 
Q 21.921875 6.390625 25.875 6.390625 
Q 29.828125 6.390625 33.296875 8.421875 
Q 36.765625 10.453125 38.203125 13.9375 
Q 39.65625 17.4375 39.65625 24.078125 
L 39.65625 51.859375 
L 48.4375 51.859375 
L 48.4375 0 
z
" id="ArialMT-117"/>
       <path d="M 25.78125 7.859375 
L 27.046875 0.09375 
Q 23.34375 -0.6875 20.40625 -0.6875 
Q 15.625 -0.6875 12.984375 0.828125 
Q 10.359375 2.34375 9.28125 4.8125 
Q 8.203125 7.28125 8.203125 15.1875 
L 8.203125 45.015625 
L 1.765625 45.015625 
L 1.765625 51.859375 
L 8.203125 51.859375 
L 8.203125 64.703125 
L 16.9375 69.96875 
L 16.9375 51.859375 
L 25.78125 51.859375 
L 25.78125 45.015625 
L 16.9375 45.015625 
L 16.9375 14.703125 
Q 16.9375 10.9375 17.40625 9.859375 
Q 17.875 8.796875 18.921875 8.15625 
Q 19.96875 7.515625 21.921875 7.515625 
Q 23.390625 7.515625 25.78125 7.859375 
z
" id="ArialMT-116"/>
       <path d="M 42.09375 16.703125 
L 51.171875 15.578125 
Q 49.03125 7.625 43.21875 3.21875 
Q 37.40625 -1.171875 28.375 -1.171875 
Q 17 -1.171875 10.328125 5.828125 
Q 3.65625 12.84375 3.65625 25.484375 
Q 3.65625 38.578125 10.390625 45.796875 
Q 17.140625 53.03125 27.875 53.03125 
Q 38.28125 53.03125 44.875 45.953125 
Q 51.46875 38.875 51.46875 26.03125 
Q 51.46875 25.25 51.421875 23.6875 
L 12.75 23.6875 
Q 13.234375 15.140625 17.578125 10.59375 
Q 21.921875 6.0625 28.421875 6.0625 
Q 33.25 6.0625 36.671875 8.59375 
Q 40.09375 11.140625 42.09375 16.703125 
z
M 13.234375 30.90625 
L 42.1875 30.90625 
Q 41.609375 37.453125 38.875 40.71875 
Q 34.671875 45.796875 27.984375 45.796875 
Q 21.921875 45.796875 17.796875 41.75 
Q 13.671875 37.703125 13.234375 30.90625 
z
" id="ArialMT-101"/>
       <path id="ArialMT-32"/>
       <path d="M 58.796875 25.09375 
L 68.265625 22.703125 
Q 65.28125 11.03125 57.546875 4.90625 
Q 49.8125 -1.21875 38.625 -1.21875 
Q 27.046875 -1.21875 19.796875 3.484375 
Q 12.546875 8.203125 8.765625 17.140625 
Q 4.984375 26.078125 4.984375 36.328125 
Q 4.984375 47.515625 9.25 55.828125 
Q 13.53125 64.15625 21.40625 68.46875 
Q 29.296875 72.796875 38.765625 72.796875 
Q 49.515625 72.796875 56.828125 67.328125 
Q 64.15625 61.859375 67.046875 51.953125 
L 57.71875 49.75 
Q 55.21875 57.5625 50.484375 61.125 
Q 45.75 64.703125 38.578125 64.703125 
Q 30.328125 64.703125 24.78125 60.734375 
Q 19.234375 56.78125 16.984375 50.109375 
Q 14.75 43.453125 14.75 36.375 
Q 14.75 27.25 17.40625 20.4375 
Q 20.0625 13.625 25.671875 10.25 
Q 31.296875 6.890625 37.84375 6.890625 
Q 45.796875 6.890625 51.3125 11.46875 
Q 56.84375 16.0625 58.796875 25.09375 
z
" id="ArialMT-67"/>
       <path d="M 40.4375 6.390625 
Q 35.546875 2.25 31.03125 0.53125 
Q 26.515625 -1.171875 21.34375 -1.171875 
Q 12.796875 -1.171875 8.203125 3 
Q 3.609375 7.171875 3.609375 13.671875 
Q 3.609375 17.484375 5.34375 20.625 
Q 7.078125 23.78125 9.890625 25.6875 
Q 12.703125 27.59375 16.21875 28.5625 
Q 18.796875 29.25 24.03125 29.890625 
Q 34.671875 31.15625 39.703125 32.90625 
Q 39.75 34.71875 39.75 35.203125 
Q 39.75 40.578125 37.25 42.78125 
Q 33.890625 45.75 27.25 45.75 
Q 21.046875 45.75 18.09375 43.578125 
Q 15.140625 41.40625 13.71875 35.890625 
L 5.125 37.0625 
Q 6.296875 42.578125 8.984375 45.96875 
Q 11.671875 49.359375 16.75 51.1875 
Q 21.828125 53.03125 28.515625 53.03125 
Q 35.15625 53.03125 39.296875 51.46875 
Q 43.453125 49.90625 45.40625 47.53125 
Q 47.359375 45.171875 48.140625 41.546875 
Q 48.578125 39.3125 48.578125 33.453125 
L 48.578125 21.734375 
Q 48.578125 9.46875 49.140625 6.21875 
Q 49.703125 2.984375 51.375 0 
L 42.1875 0 
Q 40.828125 2.734375 40.4375 6.390625 
z
M 39.703125 26.03125 
Q 34.90625 24.078125 25.34375 22.703125 
Q 19.921875 21.921875 17.671875 20.9375 
Q 15.4375 19.96875 14.203125 18.09375 
Q 12.984375 16.21875 12.984375 13.921875 
Q 12.984375 10.40625 15.640625 8.0625 
Q 18.3125 5.71875 23.4375 5.71875 
Q 28.515625 5.71875 32.46875 7.9375 
Q 36.421875 10.15625 38.28125 14.015625 
Q 39.703125 17 39.703125 22.796875 
z
" id="ArialMT-97"/>
       <path d="M 6.5 0 
L 6.5 51.859375 
L 14.40625 51.859375 
L 14.40625 44 
Q 17.4375 49.515625 20 51.265625 
Q 22.5625 53.03125 25.640625 53.03125 
Q 30.078125 53.03125 34.671875 50.203125 
L 31.640625 42.046875 
Q 28.421875 43.953125 25.203125 43.953125 
Q 22.3125 43.953125 20.015625 42.21875 
Q 17.71875 40.484375 16.75 37.40625 
Q 15.28125 32.71875 15.28125 27.15625 
L 15.28125 0 
z
" id="ArialMT-114"/>
      </defs>
      <g style="fill:#262626;" transform="translate(141.210952 266.977813)scale(0.1 -0.1)">
       <use xlink:href="#ArialMT-65"/>
       <use x="66.699219" xlink:href="#ArialMT-99"/>
       <use x="116.699219" xlink:href="#ArialMT-117"/>
       <use x="172.314453" xlink:href="#ArialMT-116"/>
       <use x="200.097656" xlink:href="#ArialMT-101"/>
       <use x="255.712891" xlink:href="#ArialMT-32"/>
       <use x="283.496094" xlink:href="#ArialMT-67"/>
       <use x="355.712891" xlink:href="#ArialMT-97"/>
       <use x="411.328125" xlink:href="#ArialMT-114"/>
       <use x="444.628906" xlink:href="#ArialMT-101"/>
      </g>
     </g>
    </g>
    <g id="xtick_2">
     <g id="line2d_3">
      <path clip-path="url(#p47321ed789)" d="M 192.135477 256.32 
L 192.135477 34.56 
" style="fill:none;stroke:#cccccc;stroke-linecap:round;stroke-width:0.8;"/>
     </g>
     <g id="line2d_4"/>
     <g id="text_2">
      <!-- Adult Health -->
      <defs>
       <path d="M 40.234375 0 
L 40.234375 6.546875 
Q 35.296875 -1.171875 25.734375 -1.171875 
Q 19.53125 -1.171875 14.328125 2.25 
Q 9.125 5.671875 6.265625 11.796875 
Q 3.421875 17.921875 3.421875 25.875 
Q 3.421875 33.640625 6 39.96875 
Q 8.59375 46.296875 13.765625 49.65625 
Q 18.953125 53.03125 25.34375 53.03125 
Q 30.03125 53.03125 33.6875 51.046875 
Q 37.359375 49.078125 39.65625 45.90625 
L 39.65625 71.578125 
L 48.390625 71.578125 
L 48.390625 0 
z
M 12.453125 25.875 
Q 12.453125 15.921875 16.640625 10.984375 
Q 20.84375 6.0625 26.5625 6.0625 
Q 32.328125 6.0625 36.34375 10.765625 
Q 40.375 15.484375 40.375 25.140625 
Q 40.375 35.796875 36.265625 40.765625 
Q 32.171875 45.75 26.171875 45.75 
Q 20.3125 45.75 16.375 40.96875 
Q 12.453125 36.1875 12.453125 25.875 
z
" id="ArialMT-100"/>
       <path d="M 6.390625 0 
L 6.390625 71.578125 
L 15.1875 71.578125 
L 15.1875 0 
z
" id="ArialMT-108"/>
       <path d="M 8.015625 0 
L 8.015625 71.578125 
L 17.484375 71.578125 
L 17.484375 42.1875 
L 54.6875 42.1875 
L 54.6875 71.578125 
L 64.15625 71.578125 
L 64.15625 0 
L 54.6875 0 
L 54.6875 33.734375 
L 17.484375 33.734375 
L 17.484375 0 
z
" id="ArialMT-72"/>
       <path d="M 6.59375 0 
L 6.59375 71.578125 
L 15.375 71.578125 
L 15.375 45.90625 
Q 21.53125 53.03125 30.90625 53.03125 
Q 36.671875 53.03125 40.921875 50.75 
Q 45.171875 48.484375 47 44.484375 
Q 48.828125 40.484375 48.828125 32.859375 
L 48.828125 0 
L 40.046875 0 
L 40.046875 32.859375 
Q 40.046875 39.453125 37.1875 42.453125 
Q 34.328125 45.453125 29.109375 45.453125 
Q 25.203125 45.453125 21.75 43.421875 
Q 18.3125 41.40625 16.84375 37.9375 
Q 15.375 34.46875 15.375 28.375 
L 15.375 0 
z
" id="ArialMT-104"/>
      </defs>
      <g style="fill:#262626;" transform="translate(164.897977 266.977813)scale(0.1 -0.1)">
       <use xlink:href="#ArialMT-65"/>
       <use x="66.699219" xlink:href="#ArialMT-100"/>
       <use x="122.314453" xlink:href="#ArialMT-117"/>
       <use x="177.929688" xlink:href="#ArialMT-108"/>
       <use x="200.146484" xlink:href="#ArialMT-116"/>
       <use x="227.929688" xlink:href="#ArialMT-32"/>
       <use x="255.712891" xlink:href="#ArialMT-72"/>
       <use x="327.929688" xlink:href="#ArialMT-101"/>
       <use x="383.544922" xlink:href="#ArialMT-97"/>
       <use x="439.160156" xlink:href="#ArialMT-108"/>
       <use x="461.376953" xlink:href="#ArialMT-116"/>
       <use x="489.160156" xlink:href="#ArialMT-104"/>
      </g>
     </g>
    </g>
    <g id="xtick_3">
     <g id="line2d_5">
      <path clip-path="url(#p47321ed789)" d="M 238.174646 256.32 
L 238.174646 34.56 
" style="fill:none;stroke:#cccccc;stroke-linecap:round;stroke-width:0.8;"/>
     </g>
     <g id="line2d_6"/>
     <g id="text_3">
      <!-- Cardiovascular Disease -->
      <defs>
       <path d="M 6.640625 61.46875 
L 6.640625 71.578125 
L 15.4375 71.578125 
L 15.4375 61.46875 
z
M 6.640625 0 
L 6.640625 51.859375 
L 15.4375 51.859375 
L 15.4375 0 
z
" id="ArialMT-105"/>
       <path d="M 3.328125 25.921875 
Q 3.328125 40.328125 11.328125 47.265625 
Q 18.015625 53.03125 27.640625 53.03125 
Q 38.328125 53.03125 45.109375 46.015625 
Q 51.90625 39.015625 51.90625 26.65625 
Q 51.90625 16.65625 48.90625 10.90625 
Q 45.90625 5.171875 40.15625 2 
Q 34.421875 -1.171875 27.640625 -1.171875 
Q 16.75 -1.171875 10.03125 5.8125 
Q 3.328125 12.796875 3.328125 25.921875 
z
M 12.359375 25.921875 
Q 12.359375 15.96875 16.703125 11.015625 
Q 21.046875 6.0625 27.640625 6.0625 
Q 34.1875 6.0625 38.53125 11.03125 
Q 42.875 16.015625 42.875 26.21875 
Q 42.875 35.84375 38.5 40.796875 
Q 34.125 45.75 27.640625 45.75 
Q 21.046875 45.75 16.703125 40.8125 
Q 12.359375 35.890625 12.359375 25.921875 
z
" id="ArialMT-111"/>
       <path d="M 21 0 
L 1.265625 51.859375 
L 10.546875 51.859375 
L 21.6875 20.796875 
Q 23.484375 15.765625 25 10.359375 
Q 26.171875 14.453125 28.265625 20.21875 
L 39.796875 51.859375 
L 48.828125 51.859375 
L 29.203125 0 
z
" id="ArialMT-118"/>
       <path d="M 3.078125 15.484375 
L 11.765625 16.84375 
Q 12.5 11.625 15.84375 8.84375 
Q 19.1875 6.0625 25.203125 6.0625 
Q 31.25 6.0625 34.171875 8.515625 
Q 37.109375 10.984375 37.109375 14.3125 
Q 37.109375 17.28125 34.515625 19 
Q 32.71875 20.171875 25.53125 21.96875 
Q 15.875 24.421875 12.140625 26.203125 
Q 8.40625 27.984375 6.46875 31.125 
Q 4.546875 34.28125 4.546875 38.09375 
Q 4.546875 41.546875 6.125 44.5 
Q 7.71875 47.46875 10.453125 49.421875 
Q 12.5 50.921875 16.03125 51.96875 
Q 19.578125 53.03125 23.640625 53.03125 
Q 29.734375 53.03125 34.34375 51.265625 
Q 38.96875 49.515625 41.15625 46.5 
Q 43.359375 43.5 44.1875 38.484375 
L 35.59375 37.3125 
Q 35.015625 41.3125 32.203125 43.546875 
Q 29.390625 45.796875 24.265625 45.796875 
Q 18.21875 45.796875 15.625 43.796875 
Q 13.03125 41.796875 13.03125 39.109375 
Q 13.03125 37.40625 14.109375 36.03125 
Q 15.1875 34.625 17.484375 33.6875 
Q 18.796875 33.203125 25.25 31.453125 
Q 34.578125 28.953125 38.25 27.359375 
Q 41.9375 25.78125 44.03125 22.75 
Q 46.140625 19.734375 46.140625 15.234375 
Q 46.140625 10.84375 43.578125 6.953125 
Q 41.015625 3.078125 36.171875 0.953125 
Q 31.34375 -1.171875 25.25 -1.171875 
Q 15.140625 -1.171875 9.84375 3.03125 
Q 4.546875 7.234375 3.078125 15.484375 
z
" id="ArialMT-115"/>
       <path d="M 7.71875 0 
L 7.71875 71.578125 
L 32.375 71.578125 
Q 40.71875 71.578125 45.125 70.5625 
Q 51.265625 69.140625 55.609375 65.4375 
Q 61.28125 60.640625 64.078125 53.1875 
Q 66.890625 45.75 66.890625 36.1875 
Q 66.890625 28.03125 64.984375 21.734375 
Q 63.09375 15.4375 60.109375 11.296875 
Q 57.125 7.171875 53.578125 4.796875 
Q 50.046875 2.4375 45.046875 1.21875 
Q 40.046875 0 33.546875 0 
z
M 17.1875 8.453125 
L 32.46875 8.453125 
Q 39.546875 8.453125 43.578125 9.765625 
Q 47.609375 11.078125 50 13.484375 
Q 53.375 16.84375 55.25 22.53125 
Q 57.125 28.21875 57.125 36.328125 
Q 57.125 47.5625 53.4375 53.59375 
Q 49.75 59.625 44.484375 61.671875 
Q 40.671875 63.140625 32.234375 63.140625 
L 17.1875 63.140625 
z
" id="ArialMT-68"/>
      </defs>
      <g style="fill:#262626;" transform="translate(185.37699 266.977813)scale(0.1 -0.1)">
       <use xlink:href="#ArialMT-67"/>
       <use x="72.216797" xlink:href="#ArialMT-97"/>
       <use x="127.832031" xlink:href="#ArialMT-114"/>
       <use x="161.132812" xlink:href="#ArialMT-100"/>
       <use x="216.748047" xlink:href="#ArialMT-105"/>
       <use x="238.964844" xlink:href="#ArialMT-111"/>
       <use x="294.580078" xlink:href="#ArialMT-118"/>
       <use x="344.580078" xlink:href="#ArialMT-97"/>
       <use x="400.195312" xlink:href="#ArialMT-115"/>
       <use x="450.195312" xlink:href="#ArialMT-99"/>
       <use x="500.195312" xlink:href="#ArialMT-117"/>
       <use x="555.810547" xlink:href="#ArialMT-108"/>
       <use x="578.027344" xlink:href="#ArialMT-97"/>
       <use x="633.642578" xlink:href="#ArialMT-114"/>
       <use x="666.943359" xlink:href="#ArialMT-32"/>
       <use x="694.726562" xlink:href="#ArialMT-68"/>
       <use x="766.943359" xlink:href="#ArialMT-105"/>
       <use x="789.160156" xlink:href="#ArialMT-115"/>
       <use x="839.160156" xlink:href="#ArialMT-101"/>
       <use x="894.775391" xlink:href="#ArialMT-97"/>
       <use x="950.390625" xlink:href="#ArialMT-115"/>
       <use x="1000.390625" xlink:href="#ArialMT-101"/>
      </g>
     </g>
    </g>
    <g id="xtick_4">
     <g id="line2d_7">
      <path clip-path="url(#p47321ed789)" d="M 273.354072 256.32 
L 273.354072 34.56 
" style="fill:none;stroke:#cccccc;stroke-linecap:round;stroke-width:0.8;"/>
     </g>
     <g id="line2d_8"/>
     <g id="text_4">
      <!-- Child &amp; Adolescent Psychiatry -->
      <defs>
       <path d="M 47.515625 8.453125 
Q 43.171875 3.609375 38.03125 1.1875 
Q 32.90625 -1.21875 26.953125 -1.21875 
Q 15.96875 -1.21875 9.515625 6.203125 
Q 4.296875 12.25 4.296875 19.734375 
Q 4.296875 26.375 8.5625 31.71875 
Q 12.84375 37.0625 21.34375 41.109375 
Q 16.5 46.6875 14.890625 50.140625 
Q 13.28125 53.609375 13.28125 56.84375 
Q 13.28125 63.28125 18.328125 68.03125 
Q 23.390625 72.796875 31.0625 72.796875 
Q 38.375 72.796875 43.03125 68.296875 
Q 47.703125 63.8125 47.703125 57.515625 
Q 47.703125 47.3125 34.1875 40.09375 
L 47.015625 23.734375 
Q 49.21875 28.03125 50.4375 33.6875 
L 59.578125 31.734375 
Q 57.234375 22.359375 53.21875 16.3125 
Q 58.15625 9.765625 64.40625 5.328125 
L 58.5 -1.65625 
Q 53.171875 1.765625 47.515625 8.453125 
z
M 29.640625 45.75 
Q 35.359375 49.125 37.03125 51.65625 
Q 38.71875 54.203125 38.71875 57.28125 
Q 38.71875 60.9375 36.390625 63.25 
Q 34.078125 65.578125 30.609375 65.578125 
Q 27.046875 65.578125 24.671875 63.28125 
Q 22.3125 60.984375 22.3125 57.671875 
Q 22.3125 56 23.171875 54.171875 
Q 24.03125 52.34375 25.734375 50.296875 
z
M 42 15.375 
L 25.875 35.359375 
Q 18.75 31.109375 16.25 27.46875 
Q 13.765625 23.828125 13.765625 20.265625 
Q 13.765625 15.921875 17.234375 11.234375 
Q 20.703125 6.546875 27.046875 6.546875 
Q 31 6.546875 35.21875 9 
Q 39.453125 11.46875 42 15.375 
z
" id="ArialMT-38"/>
       <path d="M 6.59375 0 
L 6.59375 51.859375 
L 14.5 51.859375 
L 14.5 44.484375 
Q 20.21875 53.03125 31 53.03125 
Q 35.6875 53.03125 39.625 51.34375 
Q 43.5625 49.65625 45.515625 46.921875 
Q 47.46875 44.1875 48.25 40.4375 
Q 48.734375 37.984375 48.734375 31.890625 
L 48.734375 0 
L 39.9375 0 
L 39.9375 31.546875 
Q 39.9375 36.921875 38.90625 39.578125 
Q 37.890625 42.234375 35.28125 43.8125 
Q 32.671875 45.40625 29.15625 45.40625 
Q 23.53125 45.40625 19.453125 41.84375 
Q 15.375 38.28125 15.375 28.328125 
L 15.375 0 
z
" id="ArialMT-110"/>
       <path d="M 7.71875 0 
L 7.71875 71.578125 
L 34.71875 71.578125 
Q 41.84375 71.578125 45.609375 70.90625 
Q 50.875 70.015625 54.4375 67.546875 
Q 58.015625 65.09375 60.1875 60.640625 
Q 62.359375 56.203125 62.359375 50.875 
Q 62.359375 41.75 56.546875 35.421875 
Q 50.734375 29.109375 35.546875 29.109375 
L 17.1875 29.109375 
L 17.1875 0 
z
M 17.1875 37.546875 
L 35.6875 37.546875 
Q 44.875 37.546875 48.734375 40.96875 
Q 52.59375 44.390625 52.59375 50.59375 
Q 52.59375 55.078125 50.3125 58.265625 
Q 48.046875 61.46875 44.34375 62.5 
Q 41.9375 63.140625 35.5 63.140625 
L 17.1875 63.140625 
z
" id="ArialMT-80"/>
       <path d="M 6.203125 -19.96875 
L 5.21875 -11.71875 
Q 8.109375 -12.5 10.25 -12.5 
Q 13.1875 -12.5 14.9375 -11.515625 
Q 16.703125 -10.546875 17.828125 -8.796875 
Q 18.65625 -7.46875 20.515625 -2.25 
Q 20.75 -1.515625 21.296875 -0.09375 
L 1.609375 51.859375 
L 11.078125 51.859375 
L 21.875 21.828125 
Q 23.96875 16.109375 25.640625 9.8125 
Q 27.15625 15.875 29.25 21.625 
L 40.328125 51.859375 
L 49.125 51.859375 
L 29.390625 -0.875 
Q 26.21875 -9.421875 24.46875 -12.640625 
Q 22.125 -17 19.09375 -19.015625 
Q 16.0625 -21.046875 11.859375 -21.046875 
Q 9.328125 -21.046875 6.203125 -19.96875 
z
" id="ArialMT-121"/>
      </defs>
      <g style="fill:#262626;" transform="translate(206.663447 267.099688)scale(0.1 -0.1)">
       <use xlink:href="#ArialMT-67"/>
       <use x="72.216797" xlink:href="#ArialMT-104"/>
       <use x="127.832031" xlink:href="#ArialMT-105"/>
       <use x="150.048828" xlink:href="#ArialMT-108"/>
       <use x="172.265625" xlink:href="#ArialMT-100"/>
       <use x="227.880859" xlink:href="#ArialMT-32"/>
       <use x="255.664062" xlink:href="#ArialMT-38"/>
       <use x="322.363281" xlink:href="#ArialMT-32"/>
       <use x="350.068359" xlink:href="#ArialMT-65"/>
       <use x="416.767578" xlink:href="#ArialMT-100"/>
       <use x="472.382812" xlink:href="#ArialMT-111"/>
       <use x="527.998047" xlink:href="#ArialMT-108"/>
       <use x="550.214844" xlink:href="#ArialMT-101"/>
       <use x="605.830078" xlink:href="#ArialMT-115"/>
       <use x="655.830078" xlink:href="#ArialMT-99"/>
       <use x="705.830078" xlink:href="#ArialMT-101"/>
       <use x="761.445312" xlink:href="#ArialMT-110"/>
       <use x="817.060547" xlink:href="#ArialMT-116"/>
       <use x="844.84375" xlink:href="#ArialMT-32"/>
       <use x="872.626953" xlink:href="#ArialMT-80"/>
       <use x="939.326172" xlink:href="#ArialMT-115"/>
       <use x="989.326172" xlink:href="#ArialMT-121"/>
       <use x="1039.326172" xlink:href="#ArialMT-99"/>
       <use x="1089.326172" xlink:href="#ArialMT-104"/>
       <use x="1144.941406" xlink:href="#ArialMT-105"/>
       <use x="1167.158203" xlink:href="#ArialMT-97"/>
       <use x="1222.773438" xlink:href="#ArialMT-116"/>
       <use x="1250.556641" xlink:href="#ArialMT-114"/>
       <use x="1283.857422" xlink:href="#ArialMT-121"/>
      </g>
     </g>
    </g>
    <g id="xtick_5">
     <g id="line2d_9">
      <path clip-path="url(#p47321ed789)" d="M 287.623055 256.32 
L 287.623055 34.56 
" style="fill:none;stroke:#cccccc;stroke-linecap:round;stroke-width:0.8;"/>
     </g>
     <g id="line2d_10"/>
     <g id="text_5">
      <!-- Emergency Medical Services -->
      <defs>
       <path d="M 7.90625 0 
L 7.90625 71.578125 
L 59.671875 71.578125 
L 59.671875 63.140625 
L 17.390625 63.140625 
L 17.390625 41.21875 
L 56.984375 41.21875 
L 56.984375 32.8125 
L 17.390625 32.8125 
L 17.390625 8.453125 
L 61.328125 8.453125 
L 61.328125 0 
z
" id="ArialMT-69"/>
       <path d="M 6.59375 0 
L 6.59375 51.859375 
L 14.453125 51.859375 
L 14.453125 44.578125 
Q 16.890625 48.390625 20.9375 50.703125 
Q 25 53.03125 30.171875 53.03125 
Q 35.9375 53.03125 39.625 50.640625 
Q 43.3125 48.25 44.828125 43.953125 
Q 50.984375 53.03125 60.84375 53.03125 
Q 68.5625 53.03125 72.703125 48.75 
Q 76.859375 44.484375 76.859375 35.59375 
L 76.859375 0 
L 68.109375 0 
L 68.109375 32.671875 
Q 68.109375 37.9375 67.25 40.25 
Q 66.40625 42.578125 64.15625 43.984375 
Q 61.921875 45.40625 58.890625 45.40625 
Q 53.421875 45.40625 49.796875 41.765625 
Q 46.1875 38.140625 46.1875 30.125 
L 46.1875 0 
L 37.40625 0 
L 37.40625 33.6875 
Q 37.40625 39.546875 35.25 42.46875 
Q 33.109375 45.40625 28.21875 45.40625 
Q 24.515625 45.40625 21.359375 43.453125 
Q 18.21875 41.5 16.796875 37.734375 
Q 15.375 33.984375 15.375 26.90625 
L 15.375 0 
z
" id="ArialMT-109"/>
       <path d="M 4.984375 -4.296875 
L 13.53125 -5.5625 
Q 14.0625 -9.515625 16.5 -11.328125 
Q 19.78125 -13.765625 25.4375 -13.765625 
Q 31.546875 -13.765625 34.859375 -11.328125 
Q 38.1875 -8.890625 39.359375 -4.5 
Q 40.046875 -1.8125 39.984375 6.78125 
Q 34.234375 0 25.640625 0 
Q 14.9375 0 9.078125 7.71875 
Q 3.21875 15.4375 3.21875 26.21875 
Q 3.21875 33.640625 5.90625 39.90625 
Q 8.59375 46.1875 13.6875 49.609375 
Q 18.796875 53.03125 25.6875 53.03125 
Q 34.859375 53.03125 40.828125 45.609375 
L 40.828125 51.859375 
L 48.921875 51.859375 
L 48.921875 7.03125 
Q 48.921875 -5.078125 46.453125 -10.125 
Q 44 -15.1875 38.640625 -18.109375 
Q 33.296875 -21.046875 25.484375 -21.046875 
Q 16.21875 -21.046875 10.5 -16.875 
Q 4.78125 -12.703125 4.984375 -4.296875 
z
M 12.25 26.859375 
Q 12.25 16.65625 16.296875 11.96875 
Q 20.359375 7.28125 26.46875 7.28125 
Q 32.515625 7.28125 36.609375 11.9375 
Q 40.71875 16.609375 40.71875 26.5625 
Q 40.71875 36.078125 36.5 40.90625 
Q 32.28125 45.75 26.3125 45.75 
Q 20.453125 45.75 16.34375 40.984375 
Q 12.25 36.234375 12.25 26.859375 
z
" id="ArialMT-103"/>
       <path d="M 7.421875 0 
L 7.421875 71.578125 
L 21.6875 71.578125 
L 38.625 20.90625 
Q 40.96875 13.8125 42.046875 10.296875 
Q 43.265625 14.203125 45.84375 21.78125 
L 62.984375 71.578125 
L 75.734375 71.578125 
L 75.734375 0 
L 66.609375 0 
L 66.609375 59.90625 
L 45.796875 0 
L 37.25 0 
L 16.546875 60.9375 
L 16.546875 0 
z
" id="ArialMT-77"/>
       <path d="M 4.5 23 
L 13.421875 23.78125 
Q 14.0625 18.40625 16.375 14.96875 
Q 18.703125 11.53125 23.578125 9.40625 
Q 28.46875 7.28125 34.578125 7.28125 
Q 39.984375 7.28125 44.140625 8.890625 
Q 48.296875 10.5 50.3125 13.296875 
Q 52.34375 16.109375 52.34375 19.4375 
Q 52.34375 22.796875 50.390625 25.3125 
Q 48.4375 27.828125 43.953125 29.546875 
Q 41.0625 30.671875 31.203125 33.03125 
Q 21.34375 35.40625 17.390625 37.5 
Q 12.25 40.1875 9.734375 44.15625 
Q 7.234375 48.140625 7.234375 53.078125 
Q 7.234375 58.5 10.296875 63.203125 
Q 13.375 67.921875 19.28125 70.359375 
Q 25.203125 72.796875 32.421875 72.796875 
Q 40.375 72.796875 46.453125 70.234375 
Q 52.546875 67.671875 55.8125 62.6875 
Q 59.078125 57.71875 59.328125 51.421875 
L 50.25 50.734375 
Q 49.515625 57.515625 45.28125 60.984375 
Q 41.0625 64.453125 32.8125 64.453125 
Q 24.21875 64.453125 20.28125 61.296875 
Q 16.359375 58.15625 16.359375 53.71875 
Q 16.359375 49.859375 19.140625 47.359375 
Q 21.875 44.875 33.421875 42.265625 
Q 44.96875 39.65625 49.265625 37.703125 
Q 55.515625 34.8125 58.484375 30.390625 
Q 61.46875 25.984375 61.46875 20.21875 
Q 61.46875 14.5 58.203125 9.4375 
Q 54.9375 4.390625 48.796875 1.578125 
Q 42.671875 -1.21875 35.015625 -1.21875 
Q 25.296875 -1.21875 18.71875 1.609375 
Q 12.15625 4.4375 8.421875 10.125 
Q 4.6875 15.828125 4.5 23 
z
" id="ArialMT-83"/>
      </defs>
      <g style="fill:#262626;" transform="translate(223.158212 267.099688)scale(0.1 -0.1)">
       <use xlink:href="#ArialMT-69"/>
       <use x="66.699219" xlink:href="#ArialMT-109"/>
       <use x="150" xlink:href="#ArialMT-101"/>
       <use x="205.615234" xlink:href="#ArialMT-114"/>
       <use x="238.916016" xlink:href="#ArialMT-103"/>
       <use x="294.53125" xlink:href="#ArialMT-101"/>
       <use x="350.146484" xlink:href="#ArialMT-110"/>
       <use x="405.761719" xlink:href="#ArialMT-99"/>
       <use x="455.761719" xlink:href="#ArialMT-121"/>
       <use x="505.761719" xlink:href="#ArialMT-32"/>
       <use x="533.544922" xlink:href="#ArialMT-77"/>
       <use x="616.845703" xlink:href="#ArialMT-101"/>
       <use x="672.460938" xlink:href="#ArialMT-100"/>
       <use x="728.076172" xlink:href="#ArialMT-105"/>
       <use x="750.292969" xlink:href="#ArialMT-99"/>
       <use x="800.292969" xlink:href="#ArialMT-97"/>
       <use x="855.908203" xlink:href="#ArialMT-108"/>
       <use x="878.125" xlink:href="#ArialMT-32"/>
       <use x="905.908203" xlink:href="#ArialMT-83"/>
       <use x="972.607422" xlink:href="#ArialMT-101"/>
       <use x="1028.222656" xlink:href="#ArialMT-114"/>
       <use x="1061.523438" xlink:href="#ArialMT-118"/>
       <use x="1111.523438" xlink:href="#ArialMT-105"/>
       <use x="1133.740234" xlink:href="#ArialMT-99"/>
       <use x="1183.740234" xlink:href="#ArialMT-101"/>
       <use x="1239.355469" xlink:href="#ArialMT-115"/>
      </g>
     </g>
    </g>
    <g id="xtick_6">
     <g id="line2d_11">
      <path clip-path="url(#p47321ed789)" d="M 306.599353 256.32 
L 306.599353 34.56 
" style="fill:none;stroke:#cccccc;stroke-linecap:round;stroke-width:0.8;"/>
     </g>
     <g id="line2d_12"/>
     <g id="text_6">
      <!-- Endocrinology, Diabetes &amp; Metabolism -->
      <defs>
       <path d="M 8.890625 0 
L 8.890625 10.015625 
L 18.890625 10.015625 
L 18.890625 0 
Q 18.890625 -5.515625 16.9375 -8.90625 
Q 14.984375 -12.3125 10.75 -14.15625 
L 8.296875 -10.40625 
Q 11.078125 -9.1875 12.390625 -6.8125 
Q 13.71875 -4.4375 13.875 0 
z
" id="ArialMT-44"/>
       <path d="M 14.703125 0 
L 6.546875 0 
L 6.546875 71.578125 
L 15.328125 71.578125 
L 15.328125 46.046875 
Q 20.90625 53.03125 29.546875 53.03125 
Q 34.328125 53.03125 38.59375 51.09375 
Q 42.875 49.171875 45.625 45.671875 
Q 48.390625 42.1875 49.953125 37.25 
Q 51.515625 32.328125 51.515625 26.703125 
Q 51.515625 13.375 44.921875 6.09375 
Q 38.328125 -1.171875 29.109375 -1.171875 
Q 19.921875 -1.171875 14.703125 6.5 
z
M 14.59375 26.3125 
Q 14.59375 17 17.140625 12.84375 
Q 21.296875 6.0625 28.375 6.0625 
Q 34.125 6.0625 38.328125 11.0625 
Q 42.53125 16.0625 42.53125 25.984375 
Q 42.53125 36.140625 38.5 40.96875 
Q 34.46875 45.796875 28.765625 45.796875 
Q 23 45.796875 18.796875 40.796875 
Q 14.59375 35.796875 14.59375 26.3125 
z
" id="ArialMT-98"/>
      </defs>
      <g style="fill:#262626;" transform="translate(220.732946 267.099688)scale(0.1 -0.1)">
       <use xlink:href="#ArialMT-69"/>
       <use x="66.699219" xlink:href="#ArialMT-110"/>
       <use x="122.314453" xlink:href="#ArialMT-100"/>
       <use x="177.929688" xlink:href="#ArialMT-111"/>
       <use x="233.544922" xlink:href="#ArialMT-99"/>
       <use x="283.544922" xlink:href="#ArialMT-114"/>
       <use x="316.845703" xlink:href="#ArialMT-105"/>
       <use x="339.0625" xlink:href="#ArialMT-110"/>
       <use x="394.677734" xlink:href="#ArialMT-111"/>
       <use x="450.292969" xlink:href="#ArialMT-108"/>
       <use x="472.509766" xlink:href="#ArialMT-111"/>
       <use x="528.125" xlink:href="#ArialMT-103"/>
       <use x="583.740234" xlink:href="#ArialMT-121"/>
       <use x="633.630859" xlink:href="#ArialMT-44"/>
       <use x="661.414062" xlink:href="#ArialMT-32"/>
       <use x="689.197266" xlink:href="#ArialMT-68"/>
       <use x="761.414062" xlink:href="#ArialMT-105"/>
       <use x="783.630859" xlink:href="#ArialMT-97"/>
       <use x="839.246094" xlink:href="#ArialMT-98"/>
       <use x="894.861328" xlink:href="#ArialMT-101"/>
       <use x="950.476562" xlink:href="#ArialMT-116"/>
       <use x="978.259766" xlink:href="#ArialMT-101"/>
       <use x="1033.875" xlink:href="#ArialMT-115"/>
       <use x="1083.875" xlink:href="#ArialMT-32"/>
       <use x="1111.658203" xlink:href="#ArialMT-38"/>
       <use x="1178.357422" xlink:href="#ArialMT-32"/>
       <use x="1206.140625" xlink:href="#ArialMT-77"/>
       <use x="1289.441406" xlink:href="#ArialMT-101"/>
       <use x="1345.056641" xlink:href="#ArialMT-116"/>
       <use x="1372.839844" xlink:href="#ArialMT-97"/>
       <use x="1428.455078" xlink:href="#ArialMT-98"/>
       <use x="1484.070312" xlink:href="#ArialMT-111"/>
       <use x="1539.685547" xlink:href="#ArialMT-108"/>
       <use x="1561.902344" xlink:href="#ArialMT-105"/>
       <use x="1584.119141" xlink:href="#ArialMT-115"/>
       <use x="1634.119141" xlink:href="#ArialMT-109"/>
      </g>
     </g>
    </g>
    <g id="xtick_7">
     <g id="line2d_13">
      <path clip-path="url(#p47321ed789)" d="M 327.093298 256.32 
L 327.093298 34.56 
" style="fill:none;stroke:#cccccc;stroke-linecap:round;stroke-width:0.8;"/>
     </g>
     <g id="line2d_14"/>
     <g id="text_7">
      <!-- Endodontics -->
      <g style="fill:#262626;" transform="translate(299.57533 266.977813)scale(0.1 -0.1)">
       <use xlink:href="#ArialMT-69"/>
       <use x="66.699219" xlink:href="#ArialMT-110"/>
       <use x="122.314453" xlink:href="#ArialMT-100"/>
       <use x="177.929688" xlink:href="#ArialMT-111"/>
       <use x="233.544922" xlink:href="#ArialMT-100"/>
       <use x="289.160156" xlink:href="#ArialMT-111"/>
       <use x="344.775391" xlink:href="#ArialMT-110"/>
       <use x="400.390625" xlink:href="#ArialMT-116"/>
       <use x="428.173828" xlink:href="#ArialMT-105"/>
       <use x="450.390625" xlink:href="#ArialMT-99"/>
       <use x="500.390625" xlink:href="#ArialMT-115"/>
      </g>
     </g>
    </g>
    <g id="xtick_8">
     <g id="line2d_15">
      <path clip-path="url(#p47321ed789)" d="M 384.959338 256.32 
L 384.959338 34.56 
" style="fill:none;stroke:#cccccc;stroke-linecap:round;stroke-width:0.8;"/>
     </g>
     <g id="line2d_16"/>
     <g id="text_8">
      <!-- Family -->
      <defs>
       <path d="M 8.203125 0 
L 8.203125 71.578125 
L 56.5 71.578125 
L 56.5 63.140625 
L 17.671875 63.140625 
L 17.671875 40.96875 
L 51.265625 40.96875 
L 51.265625 32.515625 
L 17.671875 32.515625 
L 17.671875 0 
z
" id="ArialMT-70"/>
      </defs>
      <g style="fill:#262626;" transform="translate(370.238244 266.977813)scale(0.1 -0.1)">
       <use xlink:href="#ArialMT-70"/>
       <use x="61.083984" xlink:href="#ArialMT-97"/>
       <use x="116.699219" xlink:href="#ArialMT-109"/>
       <use x="200" xlink:href="#ArialMT-105"/>
       <use x="222.216797" xlink:href="#ArialMT-108"/>
       <use x="244.433594" xlink:href="#ArialMT-121"/>
      </g>
     </g>
    </g>
    <g id="xtick_9">
     <g id="line2d_17">
      <path clip-path="url(#p47321ed789)" d="M 444.343026 256.32 
L 444.343026 34.56 
" style="fill:none;stroke:#cccccc;stroke-linecap:round;stroke-width:0.8;"/>
     </g>
     <g id="line2d_18"/>
     <g id="text_9">
      <!-- Foot &amp; Ankle Surgery -->
      <defs>
       <path d="M 6.640625 0 
L 6.640625 71.578125 
L 15.4375 71.578125 
L 15.4375 30.765625 
L 36.234375 51.859375 
L 47.609375 51.859375 
L 27.78125 32.625 
L 49.609375 0 
L 38.765625 0 
L 21.625 26.515625 
L 15.4375 20.5625 
L 15.4375 0 
z
" id="ArialMT-107"/>
      </defs>
      <g style="fill:#262626;" transform="translate(396.827401 267.099688)scale(0.1 -0.1)">
       <use xlink:href="#ArialMT-70"/>
       <use x="61.083984" xlink:href="#ArialMT-111"/>
       <use x="116.699219" xlink:href="#ArialMT-111"/>
       <use x="172.314453" xlink:href="#ArialMT-116"/>
       <use x="200.097656" xlink:href="#ArialMT-32"/>
       <use x="227.880859" xlink:href="#ArialMT-38"/>
       <use x="294.580078" xlink:href="#ArialMT-32"/>
       <use x="322.285156" xlink:href="#ArialMT-65"/>
       <use x="388.984375" xlink:href="#ArialMT-110"/>
       <use x="444.599609" xlink:href="#ArialMT-107"/>
       <use x="494.599609" xlink:href="#ArialMT-108"/>
       <use x="516.816406" xlink:href="#ArialMT-101"/>
       <use x="572.431641" xlink:href="#ArialMT-32"/>
       <use x="600.214844" xlink:href="#ArialMT-83"/>
       <use x="666.914062" xlink:href="#ArialMT-117"/>
       <use x="722.529297" xlink:href="#ArialMT-114"/>
       <use x="755.830078" xlink:href="#ArialMT-103"/>
       <use x="811.445312" xlink:href="#ArialMT-101"/>
       <use x="867.060547" xlink:href="#ArialMT-114"/>
       <use x="900.361328" xlink:href="#ArialMT-121"/>
      </g>
     </g>
    </g>
    <g id="xtick_10">
     <g id="line2d_19">
      <path clip-path="url(#p47321ed789)" d="M 476.6936 256.32 
L 476.6936 34.56 
" style="fill:none;stroke:#cccccc;stroke-linecap:round;stroke-width:0.8;"/>
     </g>
     <g id="line2d_20"/>
     <g id="text_10">
      <!-- Gastroenterology -->
      <defs>
       <path d="M 41.21875 28.078125 
L 41.21875 36.46875 
L 71.53125 36.53125 
L 71.53125 9.96875 
Q 64.546875 4.390625 57.125 1.578125 
Q 49.703125 -1.21875 41.890625 -1.21875 
Q 31.34375 -1.21875 22.71875 3.296875 
Q 14.109375 7.8125 9.71875 16.359375 
Q 5.328125 24.90625 5.328125 35.453125 
Q 5.328125 45.90625 9.6875 54.953125 
Q 14.0625 64.015625 22.265625 68.40625 
Q 30.46875 72.796875 41.15625 72.796875 
Q 48.921875 72.796875 55.1875 70.28125 
Q 61.46875 67.78125 65.03125 63.28125 
Q 68.609375 58.796875 70.453125 51.5625 
L 61.921875 49.21875 
Q 60.296875 54.6875 57.90625 57.8125 
Q 55.515625 60.9375 51.0625 62.8125 
Q 46.625 64.703125 41.21875 64.703125 
Q 34.71875 64.703125 29.984375 62.71875 
Q 25.25 60.75 22.34375 57.515625 
Q 19.4375 54.296875 17.828125 50.4375 
Q 15.09375 43.796875 15.09375 36.03125 
Q 15.09375 26.46875 18.390625 20.015625 
Q 21.6875 13.578125 27.984375 10.453125 
Q 34.28125 7.328125 41.359375 7.328125 
Q 47.515625 7.328125 53.375 9.6875 
Q 59.234375 12.0625 62.25 14.75 
L 62.25 28.078125 
z
" id="ArialMT-71"/>
      </defs>
      <g style="fill:#262626;" transform="translate(438.342038 267.099688)scale(0.1 -0.1)">
       <use xlink:href="#ArialMT-71"/>
       <use x="77.783203" xlink:href="#ArialMT-97"/>
       <use x="133.398438" xlink:href="#ArialMT-115"/>
       <use x="183.398438" xlink:href="#ArialMT-116"/>
       <use x="211.181641" xlink:href="#ArialMT-114"/>
       <use x="244.482422" xlink:href="#ArialMT-111"/>
       <use x="300.097656" xlink:href="#ArialMT-101"/>
       <use x="355.712891" xlink:href="#ArialMT-110"/>
       <use x="411.328125" xlink:href="#ArialMT-116"/>
       <use x="439.111328" xlink:href="#ArialMT-101"/>
       <use x="494.726562" xlink:href="#ArialMT-114"/>
       <use x="528.027344" xlink:href="#ArialMT-111"/>
       <use x="583.642578" xlink:href="#ArialMT-108"/>
       <use x="605.859375" xlink:href="#ArialMT-111"/>
       <use x="661.474609" xlink:href="#ArialMT-103"/>
       <use x="717.089844" xlink:href="#ArialMT-121"/>
      </g>
     </g>
    </g>
    <g id="xtick_11">
     <g id="line2d_21">
      <path clip-path="url(#p47321ed789)" d="M 591.540273 256.32 
L 591.540273 34.56 
" style="fill:none;stroke:#cccccc;stroke-linecap:round;stroke-width:0.8;"/>
     </g>
     <g id="line2d_22"/>
     <g id="text_11">
      <!-- General Practice -->
      <g style="fill:#262626;" transform="translate(554.303554 266.977813)scale(0.1 -0.1)">
       <use xlink:href="#ArialMT-71"/>
       <use x="77.783203" xlink:href="#ArialMT-101"/>
       <use x="133.398438" xlink:href="#ArialMT-110"/>
       <use x="189.013672" xlink:href="#ArialMT-101"/>
       <use x="244.628906" xlink:href="#ArialMT-114"/>
       <use x="277.929688" xlink:href="#ArialMT-97"/>
       <use x="333.544922" xlink:href="#ArialMT-108"/>
       <use x="355.761719" xlink:href="#ArialMT-32"/>
       <use x="383.544922" xlink:href="#ArialMT-80"/>
       <use x="450.244141" xlink:href="#ArialMT-114"/>
       <use x="483.544922" xlink:href="#ArialMT-97"/>
       <use x="539.160156" xlink:href="#ArialMT-99"/>
       <use x="589.160156" xlink:href="#ArialMT-116"/>
       <use x="616.943359" xlink:href="#ArialMT-105"/>
       <use x="639.160156" xlink:href="#ArialMT-99"/>
       <use x="689.160156" xlink:href="#ArialMT-101"/>
      </g>
     </g>
    </g>
    <g id="xtick_12">
     <g id="line2d_23">
      <path clip-path="url(#p47321ed789)" d="M 693.728715 256.32 
L 693.728715 34.56 
" style="fill:none;stroke:#cccccc;stroke-linecap:round;stroke-width:0.8;"/>
     </g>
     <g id="line2d_24"/>
     <g id="text_12">
      <!-- Geriatric Medicine -->
      <g style="fill:#262626;" transform="translate(653.440434 266.977813)scale(0.1 -0.1)">
       <use xlink:href="#ArialMT-71"/>
       <use x="77.783203" xlink:href="#ArialMT-101"/>
       <use x="133.398438" xlink:href="#ArialMT-114"/>
       <use x="166.699219" xlink:href="#ArialMT-105"/>
       <use x="188.916016" xlink:href="#ArialMT-97"/>
       <use x="244.53125" xlink:href="#ArialMT-116"/>
       <use x="272.314453" xlink:href="#ArialMT-114"/>
       <use x="305.615234" xlink:href="#ArialMT-105"/>
       <use x="327.832031" xlink:href="#ArialMT-99"/>
       <use x="377.832031" xlink:href="#ArialMT-32"/>
       <use x="405.615234" xlink:href="#ArialMT-77"/>
       <use x="488.916016" xlink:href="#ArialMT-101"/>
       <use x="544.53125" xlink:href="#ArialMT-100"/>
       <use x="600.146484" xlink:href="#ArialMT-105"/>
       <use x="622.363281" xlink:href="#ArialMT-99"/>
       <use x="672.363281" xlink:href="#ArialMT-105"/>
       <use x="694.580078" xlink:href="#ArialMT-110"/>
       <use x="750.195312" xlink:href="#ArialMT-101"/>
      </g>
     </g>
    </g>
    <g id="xtick_13">
     <g id="line2d_25">
      <path clip-path="url(#p47321ed789)" d="M 710.372744 256.32 
L 710.372744 34.56 
" style="fill:none;stroke:#cccccc;stroke-linecap:round;stroke-width:0.8;"/>
     </g>
     <g id="line2d_26"/>
     <g id="text_13">
      <!-- Gynecology -->
      <g style="fill:#262626;" transform="translate(683.9704 267.099688)scale(0.1 -0.1)">
       <use xlink:href="#ArialMT-71"/>
       <use x="77.783203" xlink:href="#ArialMT-121"/>
       <use x="127.783203" xlink:href="#ArialMT-110"/>
       <use x="183.398438" xlink:href="#ArialMT-101"/>
       <use x="239.013672" xlink:href="#ArialMT-99"/>
       <use x="289.013672" xlink:href="#ArialMT-111"/>
       <use x="344.628906" xlink:href="#ArialMT-108"/>
       <use x="366.845703" xlink:href="#ArialMT-111"/>
       <use x="422.460938" xlink:href="#ArialMT-103"/>
       <use x="478.076172" xlink:href="#ArialMT-121"/>
      </g>
     </g>
    </g>
    <g id="xtick_14">
     <g id="line2d_27">
      <path clip-path="url(#p47321ed789)" d="M 732.527548 256.32 
L 732.527548 34.56 
" style="fill:none;stroke:#cccccc;stroke-linecap:round;stroke-width:0.8;"/>
     </g>
     <g id="line2d_28"/>
     <g id="text_14">
      <!-- Hematology &amp; Oncology -->
      <defs>
       <path d="M 4.828125 34.859375 
Q 4.828125 52.6875 14.390625 62.765625 
Q 23.96875 72.859375 39.109375 72.859375 
Q 49.03125 72.859375 56.984375 68.109375 
Q 64.9375 63.375 69.109375 54.90625 
Q 73.296875 46.4375 73.296875 35.6875 
Q 73.296875 24.8125 68.890625 16.21875 
Q 64.5 7.625 56.4375 3.203125 
Q 48.390625 -1.21875 39.0625 -1.21875 
Q 28.953125 -1.21875 20.984375 3.65625 
Q 13.03125 8.546875 8.921875 16.984375 
Q 4.828125 25.4375 4.828125 34.859375 
z
M 14.59375 34.71875 
Q 14.59375 21.78125 21.546875 14.328125 
Q 28.515625 6.890625 39.015625 6.890625 
Q 49.703125 6.890625 56.609375 14.40625 
Q 63.53125 21.921875 63.53125 35.75 
Q 63.53125 44.484375 60.578125 51 
Q 57.625 57.515625 51.921875 61.109375 
Q 46.234375 64.703125 39.15625 64.703125 
Q 29.109375 64.703125 21.84375 57.78125 
Q 14.59375 50.875 14.59375 34.71875 
z
" id="ArialMT-79"/>
      </defs>
      <g style="fill:#262626;" transform="translate(678.614266 267.105937)scale(0.1 -0.1)">
       <use xlink:href="#ArialMT-72"/>
       <use x="72.216797" xlink:href="#ArialMT-101"/>
       <use x="127.832031" xlink:href="#ArialMT-109"/>
       <use x="211.132812" xlink:href="#ArialMT-97"/>
       <use x="266.748047" xlink:href="#ArialMT-116"/>
       <use x="294.53125" xlink:href="#ArialMT-111"/>
       <use x="350.146484" xlink:href="#ArialMT-108"/>
       <use x="372.363281" xlink:href="#ArialMT-111"/>
       <use x="427.978516" xlink:href="#ArialMT-103"/>
       <use x="483.59375" xlink:href="#ArialMT-121"/>
       <use x="533.59375" xlink:href="#ArialMT-32"/>
       <use x="561.376953" xlink:href="#ArialMT-38"/>
       <use x="628.076172" xlink:href="#ArialMT-32"/>
       <use x="655.859375" xlink:href="#ArialMT-79"/>
       <use x="733.642578" xlink:href="#ArialMT-110"/>
       <use x="789.257812" xlink:href="#ArialMT-99"/>
       <use x="839.257812" xlink:href="#ArialMT-111"/>
       <use x="894.873047" xlink:href="#ArialMT-108"/>
       <use x="917.089844" xlink:href="#ArialMT-111"/>
       <use x="972.705078" xlink:href="#ArialMT-103"/>
       <use x="1028.320312" xlink:href="#ArialMT-121"/>
      </g>
     </g>
    </g>
    <g id="xtick_15">
     <g id="line2d_29">
      <path clip-path="url(#p47321ed789)" d="M 757.836679 256.32 
L 757.836679 34.56 
" style="fill:none;stroke:#cccccc;stroke-linecap:round;stroke-width:0.8;"/>
     </g>
     <g id="line2d_30"/>
     <g id="text_15">
      <!-- Infectious Disease -->
      <defs>
       <path d="M 9.328125 0 
L 9.328125 71.578125 
L 18.796875 71.578125 
L 18.796875 0 
z
" id="ArialMT-73"/>
       <path d="M 8.6875 0 
L 8.6875 45.015625 
L 0.921875 45.015625 
L 0.921875 51.859375 
L 8.6875 51.859375 
L 8.6875 57.375 
Q 8.6875 62.59375 9.625 65.140625 
Q 10.890625 68.5625 14.078125 70.671875 
Q 17.28125 72.796875 23.046875 72.796875 
Q 26.765625 72.796875 31.25 71.921875 
L 29.9375 64.265625 
Q 27.203125 64.75 24.75 64.75 
Q 20.75 64.75 19.09375 63.03125 
Q 17.4375 61.328125 17.4375 56.640625 
L 17.4375 51.859375 
L 27.546875 51.859375 
L 27.546875 45.015625 
L 17.4375 45.015625 
L 17.4375 0 
z
" id="ArialMT-102"/>
      </defs>
      <g style="fill:#262626;" transform="translate(716.984336 266.977813)scale(0.1 -0.1)">
       <use xlink:href="#ArialMT-73"/>
       <use x="27.783203" xlink:href="#ArialMT-110"/>
       <use x="83.398438" xlink:href="#ArialMT-102"/>
       <use x="111.181641" xlink:href="#ArialMT-101"/>
       <use x="166.796875" xlink:href="#ArialMT-99"/>
       <use x="216.796875" xlink:href="#ArialMT-116"/>
       <use x="244.580078" xlink:href="#ArialMT-105"/>
       <use x="266.796875" xlink:href="#ArialMT-111"/>
       <use x="322.412109" xlink:href="#ArialMT-117"/>
       <use x="378.027344" xlink:href="#ArialMT-115"/>
       <use x="428.027344" xlink:href="#ArialMT-32"/>
       <use x="455.810547" xlink:href="#ArialMT-68"/>
       <use x="528.027344" xlink:href="#ArialMT-105"/>
       <use x="550.244141" xlink:href="#ArialMT-115"/>
       <use x="600.244141" xlink:href="#ArialMT-101"/>
       <use x="655.859375" xlink:href="#ArialMT-97"/>
       <use x="711.474609" xlink:href="#ArialMT-115"/>
       <use x="761.474609" xlink:href="#ArialMT-101"/>
      </g>
     </g>
    </g>
    <g id="xtick_16">
     <g id="line2d_31">
      <path clip-path="url(#p47321ed789)" d="M 795.40789 256.32 
L 795.40789 34.56 
" style="fill:none;stroke:#cccccc;stroke-linecap:round;stroke-width:0.8;"/>
     </g>
     <g id="line2d_32"/>
     <g id="text_16">
      <!-- Medical -->
      <g style="fill:#262626;" transform="translate(778.179765 266.977813)scale(0.1 -0.1)">
       <use xlink:href="#ArialMT-77"/>
       <use x="83.300781" xlink:href="#ArialMT-101"/>
       <use x="138.916016" xlink:href="#ArialMT-100"/>
       <use x="194.53125" xlink:href="#ArialMT-105"/>
       <use x="216.748047" xlink:href="#ArialMT-99"/>
       <use x="266.748047" xlink:href="#ArialMT-97"/>
       <use x="322.363281" xlink:href="#ArialMT-108"/>
      </g>
     </g>
    </g>
    <g id="xtick_17">
     <g id="line2d_33">
      <path clip-path="url(#p47321ed789)" d="M 837.554365 256.32 
L 837.554365 34.56 
" style="fill:none;stroke:#cccccc;stroke-linecap:round;stroke-width:0.8;"/>
     </g>
     <g id="line2d_34"/>
     <g id="text_17">
      <!-- Nephrology -->
      <defs>
       <path d="M 7.625 0 
L 7.625 71.578125 
L 17.328125 71.578125 
L 54.9375 15.375 
L 54.9375 71.578125 
L 64.015625 71.578125 
L 64.015625 0 
L 54.296875 0 
L 16.703125 56.25 
L 16.703125 0 
z
" id="ArialMT-78"/>
       <path d="M 6.59375 -19.875 
L 6.59375 51.859375 
L 14.59375 51.859375 
L 14.59375 45.125 
Q 17.4375 49.078125 21 51.046875 
Q 24.5625 53.03125 29.640625 53.03125 
Q 36.28125 53.03125 41.359375 49.609375 
Q 46.4375 46.1875 49.015625 39.953125 
Q 51.609375 33.734375 51.609375 26.3125 
Q 51.609375 18.359375 48.75 11.984375 
Q 45.90625 5.609375 40.453125 2.21875 
Q 35.015625 -1.171875 29 -1.171875 
Q 24.609375 -1.171875 21.109375 0.6875 
Q 17.625 2.546875 15.375 5.375 
L 15.375 -19.875 
z
M 14.546875 25.640625 
Q 14.546875 15.625 18.59375 10.84375 
Q 22.65625 6.0625 28.421875 6.0625 
Q 34.28125 6.0625 38.453125 11.015625 
Q 42.625 15.96875 42.625 26.375 
Q 42.625 36.28125 38.546875 41.203125 
Q 34.46875 46.140625 28.8125 46.140625 
Q 23.1875 46.140625 18.859375 40.890625 
Q 14.546875 35.640625 14.546875 25.640625 
z
" id="ArialMT-112"/>
      </defs>
      <g style="fill:#262626;" transform="translate(811.984834 266.977813)scale(0.1 -0.1)">
       <use xlink:href="#ArialMT-78"/>
       <use x="72.216797" xlink:href="#ArialMT-101"/>
       <use x="127.832031" xlink:href="#ArialMT-112"/>
       <use x="183.447266" xlink:href="#ArialMT-104"/>
       <use x="239.0625" xlink:href="#ArialMT-114"/>
       <use x="272.363281" xlink:href="#ArialMT-111"/>
       <use x="327.978516" xlink:href="#ArialMT-108"/>
       <use x="350.195312" xlink:href="#ArialMT-111"/>
       <use x="405.810547" xlink:href="#ArialMT-103"/>
       <use x="461.425781" xlink:href="#ArialMT-121"/>
      </g>
     </g>
    </g>
    <g id="xtick_18">
     <g id="line2d_35">
      <path clip-path="url(#p47321ed789)" d="M 872.365538 256.32 
L 872.365538 34.56 
" style="fill:none;stroke:#cccccc;stroke-linecap:round;stroke-width:0.8;"/>
     </g>
     <g id="line2d_36"/>
     <g id="text_18">
      <!-- Neurology -->
      <g style="fill:#262626;" transform="translate(849.576476 266.977813)scale(0.1 -0.1)">
       <use xlink:href="#ArialMT-78"/>
       <use x="72.216797" xlink:href="#ArialMT-101"/>
       <use x="127.832031" xlink:href="#ArialMT-117"/>
       <use x="183.447266" xlink:href="#ArialMT-114"/>
       <use x="216.748047" xlink:href="#ArialMT-111"/>
       <use x="272.363281" xlink:href="#ArialMT-108"/>
       <use x="294.580078" xlink:href="#ArialMT-111"/>
       <use x="350.195312" xlink:href="#ArialMT-103"/>
       <use x="405.810547" xlink:href="#ArialMT-121"/>
      </g>
     </g>
    </g>
    <g id="xtick_19">
     <g id="line2d_37">
      <path clip-path="url(#p47321ed789)" d="M 903.602055 256.32 
L 903.602055 34.56 
" style="fill:none;stroke:#cccccc;stroke-linecap:round;stroke-width:0.8;"/>
     </g>
     <g id="line2d_38"/>
     <g id="text_19">
      <!-- Oral and Maxillofacial Surgery -->
      <defs>
       <path d="M 0.734375 0 
L 19.671875 26.953125 
L 2.15625 51.859375 
L 13.140625 51.859375 
L 21.09375 39.703125 
Q 23.34375 36.234375 24.703125 33.890625 
Q 26.859375 37.109375 28.65625 39.59375 
L 37.40625 51.859375 
L 47.90625 51.859375 
L 29.984375 27.4375 
L 49.265625 0 
L 38.484375 0 
L 27.828125 16.109375 
L 25 20.453125 
L 11.375 0 
z
" id="ArialMT-120"/>
      </defs>
      <g style="fill:#262626;" transform="translate(836.91143 267.105937)scale(0.1 -0.1)">
       <use xlink:href="#ArialMT-79"/>
       <use x="77.783203" xlink:href="#ArialMT-114"/>
       <use x="111.083984" xlink:href="#ArialMT-97"/>
       <use x="166.699219" xlink:href="#ArialMT-108"/>
       <use x="188.916016" xlink:href="#ArialMT-32"/>
       <use x="216.699219" xlink:href="#ArialMT-97"/>
       <use x="272.314453" xlink:href="#ArialMT-110"/>
       <use x="327.929688" xlink:href="#ArialMT-100"/>
       <use x="383.544922" xlink:href="#ArialMT-32"/>
       <use x="411.328125" xlink:href="#ArialMT-77"/>
       <use x="494.628906" xlink:href="#ArialMT-97"/>
       <use x="550.244141" xlink:href="#ArialMT-120"/>
       <use x="600.244141" xlink:href="#ArialMT-105"/>
       <use x="622.460938" xlink:href="#ArialMT-108"/>
       <use x="644.677734" xlink:href="#ArialMT-108"/>
       <use x="666.894531" xlink:href="#ArialMT-111"/>
       <use x="722.509766" xlink:href="#ArialMT-102"/>
       <use x="750.292969" xlink:href="#ArialMT-97"/>
       <use x="805.908203" xlink:href="#ArialMT-99"/>
       <use x="855.908203" xlink:href="#ArialMT-105"/>
       <use x="878.125" xlink:href="#ArialMT-97"/>
       <use x="933.740234" xlink:href="#ArialMT-108"/>
       <use x="955.957031" xlink:href="#ArialMT-32"/>
       <use x="983.740234" xlink:href="#ArialMT-83"/>
       <use x="1050.439453" xlink:href="#ArialMT-117"/>
       <use x="1106.054688" xlink:href="#ArialMT-114"/>
       <use x="1139.355469" xlink:href="#ArialMT-103"/>
       <use x="1194.970703" xlink:href="#ArialMT-101"/>
       <use x="1250.585938" xlink:href="#ArialMT-114"/>
       <use x="1283.886719" xlink:href="#ArialMT-121"/>
      </g>
     </g>
    </g>
    <g id="xtick_20">
     <g id="line2d_39">
      <path clip-path="url(#p47321ed789)" d="M 922.955904 256.32 
L 922.955904 34.56 
" style="fill:none;stroke:#cccccc;stroke-linecap:round;stroke-width:0.8;"/>
     </g>
     <g id="line2d_40"/>
     <g id="text_20">
      <!-- Pain Medicine -->
      <g style="fill:#262626;" transform="translate(891.551217 266.977813)scale(0.1 -0.1)">
       <use xlink:href="#ArialMT-80"/>
       <use x="66.699219" xlink:href="#ArialMT-97"/>
       <use x="122.314453" xlink:href="#ArialMT-105"/>
       <use x="144.53125" xlink:href="#ArialMT-110"/>
       <use x="200.146484" xlink:href="#ArialMT-32"/>
       <use x="227.929688" xlink:href="#ArialMT-77"/>
       <use x="311.230469" xlink:href="#ArialMT-101"/>
       <use x="366.845703" xlink:href="#ArialMT-100"/>
       <use x="422.460938" xlink:href="#ArialMT-105"/>
       <use x="444.677734" xlink:href="#ArialMT-99"/>
       <use x="494.677734" xlink:href="#ArialMT-105"/>
       <use x="516.894531" xlink:href="#ArialMT-110"/>
       <use x="572.509766" xlink:href="#ArialMT-101"/>
      </g>
     </g>
    </g>
    <g id="xtick_21">
     <g id="line2d_41">
      <path clip-path="url(#p47321ed789)" d="M 940.950194 256.32 
L 940.950194 34.56 
" style="fill:none;stroke:#cccccc;stroke-linecap:round;stroke-width:0.8;"/>
     </g>
     <g id="line2d_42"/>
     <g id="text_21">
      <!-- Periodontics -->
      <g style="fill:#262626;" transform="translate(913.436912 266.977813)scale(0.1 -0.1)">
       <use xlink:href="#ArialMT-80"/>
       <use x="66.699219" xlink:href="#ArialMT-101"/>
       <use x="122.314453" xlink:href="#ArialMT-114"/>
       <use x="155.615234" xlink:href="#ArialMT-105"/>
       <use x="177.832031" xlink:href="#ArialMT-111"/>
       <use x="233.447266" xlink:href="#ArialMT-100"/>
       <use x="289.0625" xlink:href="#ArialMT-111"/>
       <use x="344.677734" xlink:href="#ArialMT-110"/>
       <use x="400.292969" xlink:href="#ArialMT-116"/>
       <use x="428.076172" xlink:href="#ArialMT-105"/>
       <use x="450.292969" xlink:href="#ArialMT-99"/>
       <use x="500.292969" xlink:href="#ArialMT-115"/>
      </g>
     </g>
    </g>
    <g id="xtick_22">
     <g id="line2d_43">
      <path clip-path="url(#p47321ed789)" d="M 960.826665 256.32 
L 960.826665 34.56 
" style="fill:none;stroke:#cccccc;stroke-linecap:round;stroke-width:0.8;"/>
     </g>
     <g id="line2d_44"/>
     <g id="text_22">
      <!-- Psych/Mental Health -->
      <defs>
       <path d="M 0 -1.21875 
L 20.75 72.796875 
L 27.78125 72.796875 
L 7.078125 -1.21875 
z
" id="ArialMT-47"/>
      </defs>
      <g style="fill:#262626;" transform="translate(914.974321 267.099688)scale(0.1 -0.1)">
       <use xlink:href="#ArialMT-80"/>
       <use x="66.699219" xlink:href="#ArialMT-115"/>
       <use x="116.699219" xlink:href="#ArialMT-121"/>
       <use x="166.699219" xlink:href="#ArialMT-99"/>
       <use x="216.699219" xlink:href="#ArialMT-104"/>
       <use x="272.314453" xlink:href="#ArialMT-47"/>
       <use x="300.097656" xlink:href="#ArialMT-77"/>
       <use x="383.398438" xlink:href="#ArialMT-101"/>
       <use x="439.013672" xlink:href="#ArialMT-110"/>
       <use x="494.628906" xlink:href="#ArialMT-116"/>
       <use x="522.412109" xlink:href="#ArialMT-97"/>
       <use x="578.027344" xlink:href="#ArialMT-108"/>
       <use x="600.244141" xlink:href="#ArialMT-32"/>
       <use x="628.027344" xlink:href="#ArialMT-72"/>
       <use x="700.244141" xlink:href="#ArialMT-101"/>
       <use x="755.859375" xlink:href="#ArialMT-97"/>
       <use x="811.474609" xlink:href="#ArialMT-108"/>
       <use x="833.691406" xlink:href="#ArialMT-116"/>
       <use x="861.474609" xlink:href="#ArialMT-104"/>
      </g>
     </g>
    </g>
    <g id="xtick_23">
     <g id="line2d_45">
      <path clip-path="url(#p47321ed789)" d="M 1016.386474 256.32 
L 1016.386474 34.56 
" style="fill:none;stroke:#cccccc;stroke-linecap:round;stroke-width:0.8;"/>
     </g>
     <g id="line2d_46"/>
     <g id="text_23">
      <!-- Psychiatry -->
      <g style="fill:#262626;" transform="translate(993.325536 266.977813)scale(0.1 -0.1)">
       <use xlink:href="#ArialMT-80"/>
       <use x="66.699219" xlink:href="#ArialMT-115"/>
       <use x="116.699219" xlink:href="#ArialMT-121"/>
       <use x="166.699219" xlink:href="#ArialMT-99"/>
       <use x="216.699219" xlink:href="#ArialMT-104"/>
       <use x="272.314453" xlink:href="#ArialMT-105"/>
       <use x="294.53125" xlink:href="#ArialMT-97"/>
       <use x="350.146484" xlink:href="#ArialMT-116"/>
       <use x="377.929688" xlink:href="#ArialMT-114"/>
       <use x="411.230469" xlink:href="#ArialMT-121"/>
      </g>
     </g>
    </g>
    <g id="xtick_24">
     <g id="line2d_47">
      <path clip-path="url(#p47321ed789)" d="M 1074.124183 256.32 
L 1074.124183 34.56 
" style="fill:none;stroke:#cccccc;stroke-linecap:round;stroke-width:0.8;"/>
     </g>
     <g id="line2d_48"/>
     <g id="text_24">
      <!-- Pulmonary Disease -->
      <g style="fill:#262626;" transform="translate(1030.774183 266.977813)scale(0.1 -0.1)">
       <use xlink:href="#ArialMT-80"/>
       <use x="66.699219" xlink:href="#ArialMT-117"/>
       <use x="122.314453" xlink:href="#ArialMT-108"/>
       <use x="144.53125" xlink:href="#ArialMT-109"/>
       <use x="227.832031" xlink:href="#ArialMT-111"/>
       <use x="283.447266" xlink:href="#ArialMT-110"/>
       <use x="339.0625" xlink:href="#ArialMT-97"/>
       <use x="394.677734" xlink:href="#ArialMT-114"/>
       <use x="427.978516" xlink:href="#ArialMT-121"/>
       <use x="477.978516" xlink:href="#ArialMT-32"/>
       <use x="505.761719" xlink:href="#ArialMT-68"/>
       <use x="577.978516" xlink:href="#ArialMT-105"/>
       <use x="600.195312" xlink:href="#ArialMT-115"/>
       <use x="650.195312" xlink:href="#ArialMT-101"/>
       <use x="705.810547" xlink:href="#ArialMT-97"/>
       <use x="761.425781" xlink:href="#ArialMT-115"/>
       <use x="811.425781" xlink:href="#ArialMT-101"/>
      </g>
     </g>
    </g>
    <g id="xtick_25">
     <g id="line2d_49">
      <path clip-path="url(#p47321ed789)" d="M 1093.64728 256.32 
L 1093.64728 34.56 
" style="fill:none;stroke:#cccccc;stroke-linecap:round;stroke-width:0.8;"/>
     </g>
     <g id="line2d_50"/>
     <g id="text_25">
      <!-- Radiation Oncology -->
      <defs>
       <path d="M 7.859375 0 
L 7.859375 71.578125 
L 39.59375 71.578125 
Q 49.171875 71.578125 54.140625 69.640625 
Q 59.125 67.71875 62.109375 62.828125 
Q 65.09375 57.953125 65.09375 52.046875 
Q 65.09375 44.4375 60.15625 39.203125 
Q 55.21875 33.984375 44.921875 32.5625 
Q 48.6875 30.765625 50.640625 29 
Q 54.78125 25.203125 58.5 19.484375 
L 70.953125 0 
L 59.03125 0 
L 49.5625 14.890625 
Q 45.40625 21.34375 42.71875 24.75 
Q 40.046875 28.171875 37.921875 29.53125 
Q 35.796875 30.90625 33.59375 31.453125 
Q 31.984375 31.78125 28.328125 31.78125 
L 17.328125 31.78125 
L 17.328125 0 
z
M 17.328125 39.984375 
L 37.703125 39.984375 
Q 44.1875 39.984375 47.84375 41.328125 
Q 51.515625 42.671875 53.421875 45.625 
Q 55.328125 48.578125 55.328125 52.046875 
Q 55.328125 57.125 51.640625 60.390625 
Q 47.953125 63.671875 39.984375 63.671875 
L 17.328125 63.671875 
z
" id="ArialMT-82"/>
      </defs>
      <g style="fill:#262626;" transform="translate(1050.012123 267.105937)scale(0.1 -0.1)">
       <use xlink:href="#ArialMT-82"/>
       <use x="72.216797" xlink:href="#ArialMT-97"/>
       <use x="127.832031" xlink:href="#ArialMT-100"/>
       <use x="183.447266" xlink:href="#ArialMT-105"/>
       <use x="205.664062" xlink:href="#ArialMT-97"/>
       <use x="261.279297" xlink:href="#ArialMT-116"/>
       <use x="289.0625" xlink:href="#ArialMT-105"/>
       <use x="311.279297" xlink:href="#ArialMT-111"/>
       <use x="366.894531" xlink:href="#ArialMT-110"/>
       <use x="422.509766" xlink:href="#ArialMT-32"/>
       <use x="450.292969" xlink:href="#ArialMT-79"/>
       <use x="528.076172" xlink:href="#ArialMT-110"/>
       <use x="583.691406" xlink:href="#ArialMT-99"/>
       <use x="633.691406" xlink:href="#ArialMT-111"/>
       <use x="689.306641" xlink:href="#ArialMT-108"/>
       <use x="711.523438" xlink:href="#ArialMT-111"/>
       <use x="767.138672" xlink:href="#ArialMT-103"/>
       <use x="822.753906" xlink:href="#ArialMT-121"/>
      </g>
     </g>
    </g>
    <g id="xtick_26">
     <g id="line2d_51">
      <path clip-path="url(#p47321ed789)" d="M 1111.613671 256.32 
L 1111.613671 34.56 
" style="fill:none;stroke:#cccccc;stroke-linecap:round;stroke-width:0.8;"/>
     </g>
     <g id="line2d_52"/>
     <g id="text_26">
      <!-- Rheumatology -->
      <g style="fill:#262626;" transform="translate(1079.374608 266.977813)scale(0.1 -0.1)">
       <use xlink:href="#ArialMT-82"/>
       <use x="72.216797" xlink:href="#ArialMT-104"/>
       <use x="127.832031" xlink:href="#ArialMT-101"/>
       <use x="183.447266" xlink:href="#ArialMT-117"/>
       <use x="239.0625" xlink:href="#ArialMT-109"/>
       <use x="322.363281" xlink:href="#ArialMT-97"/>
       <use x="377.978516" xlink:href="#ArialMT-116"/>
       <use x="405.761719" xlink:href="#ArialMT-111"/>
       <use x="461.376953" xlink:href="#ArialMT-108"/>
       <use x="483.59375" xlink:href="#ArialMT-111"/>
       <use x="539.208984" xlink:href="#ArialMT-103"/>
       <use x="594.824219" xlink:href="#ArialMT-121"/>
      </g>
     </g>
    </g>
    <g id="xtick_27">
     <g id="line2d_53">
      <path clip-path="url(#p47321ed789)" d="M 1129.053721 256.32 
L 1129.053721 34.56 
" style="fill:none;stroke:#cccccc;stroke-linecap:round;stroke-width:0.8;"/>
     </g>
     <g id="line2d_54"/>
     <g id="text_27">
      <!-- Sports Medicine -->
      <g style="fill:#262626;" transform="translate(1093.206065 267.099688)scale(0.1 -0.1)">
       <use xlink:href="#ArialMT-83"/>
       <use x="66.699219" xlink:href="#ArialMT-112"/>
       <use x="122.314453" xlink:href="#ArialMT-111"/>
       <use x="177.929688" xlink:href="#ArialMT-114"/>
       <use x="211.230469" xlink:href="#ArialMT-116"/>
       <use x="239.013672" xlink:href="#ArialMT-115"/>
       <use x="289.013672" xlink:href="#ArialMT-32"/>
       <use x="316.796875" xlink:href="#ArialMT-77"/>
       <use x="400.097656" xlink:href="#ArialMT-101"/>
       <use x="455.712891" xlink:href="#ArialMT-100"/>
       <use x="511.328125" xlink:href="#ArialMT-105"/>
       <use x="533.544922" xlink:href="#ArialMT-99"/>
       <use x="583.544922" xlink:href="#ArialMT-105"/>
       <use x="605.761719" xlink:href="#ArialMT-110"/>
       <use x="661.376953" xlink:href="#ArialMT-101"/>
      </g>
     </g>
    </g>
    <g id="xtick_28">
     <g id="line2d_55">
      <path clip-path="url(#p47321ed789)" d="M 1146.251989 256.32 
L 1146.251989 34.56 
" style="fill:none;stroke:#cccccc;stroke-linecap:round;stroke-width:0.8;"/>
     </g>
     <g id="line2d_56"/>
     <g id="text_28">
      <!-- Surgical Technologist -->
      <defs>
       <path d="M 25.921875 0 
L 25.921875 63.140625 
L 2.34375 63.140625 
L 2.34375 71.578125 
L 59.078125 71.578125 
L 59.078125 63.140625 
L 35.40625 63.140625 
L 35.40625 0 
z
" id="ArialMT-84"/>
      </defs>
      <g style="fill:#262626;" transform="translate(1098.461364 267.099688)scale(0.1 -0.1)">
       <use xlink:href="#ArialMT-83"/>
       <use x="66.699219" xlink:href="#ArialMT-117"/>
       <use x="122.314453" xlink:href="#ArialMT-114"/>
       <use x="155.615234" xlink:href="#ArialMT-103"/>
       <use x="211.230469" xlink:href="#ArialMT-105"/>
       <use x="233.447266" xlink:href="#ArialMT-99"/>
       <use x="283.447266" xlink:href="#ArialMT-97"/>
       <use x="339.0625" xlink:href="#ArialMT-108"/>
       <use x="361.279297" xlink:href="#ArialMT-32"/>
       <use x="389.046875" xlink:href="#ArialMT-84"/>
       <use x="449.958984" xlink:href="#ArialMT-101"/>
       <use x="505.574219" xlink:href="#ArialMT-99"/>
       <use x="555.574219" xlink:href="#ArialMT-104"/>
       <use x="611.189453" xlink:href="#ArialMT-110"/>
       <use x="666.804688" xlink:href="#ArialMT-111"/>
       <use x="722.419922" xlink:href="#ArialMT-108"/>
       <use x="744.636719" xlink:href="#ArialMT-111"/>
       <use x="800.251953" xlink:href="#ArialMT-103"/>
       <use x="855.867188" xlink:href="#ArialMT-105"/>
       <use x="878.083984" xlink:href="#ArialMT-115"/>
       <use x="928.083984" xlink:href="#ArialMT-116"/>
      </g>
     </g>
    </g>
    <g id="xtick_29">
     <g id="line2d_57">
      <path clip-path="url(#p47321ed789)" d="M 1163.344245 256.32 
L 1163.344245 34.56 
" style="fill:none;stroke:#cccccc;stroke-linecap:round;stroke-width:0.8;"/>
     </g>
     <g id="line2d_58"/>
     <g id="text_29">
      <!-- Vascular Surgery -->
      <defs>
       <path d="M 28.171875 0 
L 0.4375 71.578125 
L 10.6875 71.578125 
L 29.296875 19.578125 
Q 31.546875 13.328125 33.0625 7.859375 
Q 34.71875 13.71875 36.921875 19.578125 
L 56.25 71.578125 
L 65.921875 71.578125 
L 37.890625 0 
z
" id="ArialMT-86"/>
      </defs>
      <g style="fill:#262626;" transform="translate(1125.002057 267.099688)scale(0.1 -0.1)">
       <use xlink:href="#ArialMT-86"/>
       <use x="66.589844" xlink:href="#ArialMT-97"/>
       <use x="122.205078" xlink:href="#ArialMT-115"/>
       <use x="172.205078" xlink:href="#ArialMT-99"/>
       <use x="222.205078" xlink:href="#ArialMT-117"/>
       <use x="277.820312" xlink:href="#ArialMT-108"/>
       <use x="300.037109" xlink:href="#ArialMT-97"/>
       <use x="355.652344" xlink:href="#ArialMT-114"/>
       <use x="388.953125" xlink:href="#ArialMT-32"/>
       <use x="416.736328" xlink:href="#ArialMT-83"/>
       <use x="483.435547" xlink:href="#ArialMT-117"/>
       <use x="539.050781" xlink:href="#ArialMT-114"/>
       <use x="572.351562" xlink:href="#ArialMT-103"/>
       <use x="627.966797" xlink:href="#ArialMT-101"/>
       <use x="683.582031" xlink:href="#ArialMT-114"/>
       <use x="716.882812" xlink:href="#ArialMT-121"/>
      </g>
     </g>
    </g>
   </g>
   <g id="matplotlib.axis_2">
    <g id="ytick_1">
     <g id="line2d_59">
      <path clip-path="url(#p47321ed789)" d="M 162 159.372379 
L 1166.4 159.372379 
" style="fill:none;stroke:#cccccc;stroke-linecap:round;stroke-width:0.8;"/>
     </g>
     <g id="line2d_60"/>
     <g id="text_30">
      <!-- F -->
      <g style="fill:#262626;" transform="translate(152.392188 162.951285)scale(0.1 -0.1)">
       <use xlink:href="#ArialMT-70"/>
      </g>
     </g>
    </g>
    <g id="ytick_2">
     <g id="line2d_61">
      <path clip-path="url(#p47321ed789)" d="M 162 47.758075 
L 1166.4 47.758075 
" style="fill:none;stroke:#cccccc;stroke-linecap:round;stroke-width:0.8;"/>
     </g>
     <g id="line2d_62"/>
     <g id="text_31">
      <!-- M -->
      <g style="fill:#262626;" transform="translate(150.170312 51.336981)scale(0.1 -0.1)">
       <use xlink:href="#ArialMT-77"/>
      </g>
     </g>
    </g>
   </g>
   <g id="patch_3">
    <path clip-path="url(#p47321ed789)" d="M 162 256.32 
L 170.44378 256.32 
L 170.44378 62.424758 
L 162 62.424758 
z
" style="fill:#69d7fc;stroke:#69d7fc;stroke-linejoin:miter;"/>
   </g>
   <g id="patch_4">
    <path clip-path="url(#p47321ed789)" d="M 162 60.956149 
L 170.44378 60.956149 
L 170.44378 34.56 
L 162 34.56 
z
" style="fill:#9be4fd;stroke:#9be4fd;stroke-linejoin:miter;"/>
   </g>
   <g id="patch_5">
    <path clip-path="url(#p47321ed789)" d="M 178.290655 256.32 
L 205.9803 256.32 
L 205.9803 51.002742 
L 178.290655 51.002742 
z
" style="fill:#69d7fc;stroke:#69d7fc;stroke-linejoin:miter;"/>
   </g>
   <g id="patch_6">
    <path clip-path="url(#p47321ed789)" d="M 178.290655 49.534133 
L 205.9803 49.534133 
L 205.9803 34.56 
L 178.290655 34.56 
z
" style="fill:#9be4fd;stroke:#9be4fd;stroke-linejoin:miter;"/>
   </g>
   <g id="patch_7">
    <path clip-path="url(#p47321ed789)" d="M 213.827175 256.32 
L 262.522117 256.32 
L 262.522117 229.12644 
L 213.827175 229.12644 
z
" style="fill:#ac99cc;stroke:#ac99cc;stroke-linejoin:miter;"/>
   </g>
   <g id="patch_8">
    <path clip-path="url(#p47321ed789)" d="M 213.827175 227.657831 
L 262.522117 227.657831 
L 262.522117 34.56 
L 213.827175 34.56 
z
" style="fill:#c7bbdd;stroke:#c7bbdd;stroke-linejoin:miter;"/>
   </g>
   <g id="patch_9">
    <path clip-path="url(#p47321ed789)" d="M 270.368992 256.32 
L 276.339153 256.32 
L 276.339153 153.791857 
L 270.368992 153.791857 
z
" style="fill:#69d7fc;stroke:#69d7fc;stroke-linejoin:miter;"/>
   </g>
   <g id="patch_10">
    <path clip-path="url(#p47321ed789)" d="M 270.368992 152.323248 
L 276.339153 152.323248 
L 276.339153 34.56 
L 270.368992 34.56 
z
" style="fill:#9be4fd;stroke:#9be4fd;stroke-linejoin:miter;"/>
   </g>
   <g id="patch_11">
    <path clip-path="url(#p47321ed789)" d="M 284.186028 256.32 
L 291.060083 256.32 
L 291.060083 211.141192 
L 284.186028 211.141192 
z
" style="fill:#ac99cc;stroke:#ac99cc;stroke-linejoin:miter;"/>
   </g>
   <g id="patch_12">
    <path clip-path="url(#p47321ed789)" d="M 284.186028 209.672583 
L 291.060083 209.672583 
L 291.060083 34.56 
L 284.186028 34.56 
z
" style="fill:#c7bbdd;stroke:#c7bbdd;stroke-linejoin:miter;"/>
   </g>
   <g id="patch_13">
    <path clip-path="url(#p47321ed789)" d="M 298.906958 256.32 
L 314.291747 256.32 
L 314.291747 163.644222 
L 298.906958 163.644222 
z
" style="fill:#87d6de;stroke:#87d6de;stroke-linejoin:miter;"/>
   </g>
   <g id="patch_14">
    <path clip-path="url(#p47321ed789)" d="M 298.906958 162.175612 
L 314.291747 162.175612 
L 314.291747 34.56 
L 298.906958 34.56 
z
" style="fill:#afe4e9;stroke:#afe4e9;stroke-linejoin:miter;"/>
   </g>
   <g id="patch_15">
    <path clip-path="url(#p47321ed789)" d="M 322.138622 256.32 
L 332.047974 256.32 
L 332.047974 224.814362 
L 322.138622 224.814362 
z
" style="fill:#abbaaf;stroke:#abbaaf;stroke-linejoin:miter;"/>
   </g>
   <g id="patch_16">
    <path clip-path="url(#p47321ed789)" d="M 322.138622 223.345753 
L 332.047974 223.345753 
L 332.047974 34.56 
L 322.138622 34.56 
z
" style="fill:#c7d1ca;stroke:#c7d1ca;stroke-linejoin:miter;"/>
   </g>
   <g id="patch_17">
    <path clip-path="url(#p47321ed789)" d="M 339.894849 256.32 
L 430.023826 256.32 
L 430.023826 56.039396 
L 339.894849 56.039396 
z
" style="fill:#9dc8a0;stroke:#9dc8a0;stroke-linejoin:miter;"/>
   </g>
   <g id="patch_18">
    <path clip-path="url(#p47321ed789)" d="M 339.894849 54.570786 
L 430.023826 54.570786 
L 430.023826 34.56 
L 339.894849 34.56 
z
" style="fill:#bedac0;stroke:#bedac0;stroke-linejoin:miter;"/>
   </g>
   <g id="patch_19">
    <path clip-path="url(#p47321ed789)" d="M 437.870701 256.32 
L 450.81535 256.32 
L 450.81535 211.755305 
L 437.870701 211.755305 
z
" style="fill:#69d7fc;stroke:#69d7fc;stroke-linejoin:miter;"/>
   </g>
   <g id="patch_20">
    <path clip-path="url(#p47321ed789)" d="M 437.870701 210.286696 
L 450.81535 210.286696 
L 450.81535 34.56 
L 437.870701 34.56 
z
" style="fill:#9be4fd;stroke:#9be4fd;stroke-linejoin:miter;"/>
   </g>
   <g id="patch_21">
    <path clip-path="url(#p47321ed789)" d="M 458.662225 256.32 
L 494.724975 256.32 
L 494.724975 226.62213 
L 458.662225 226.62213 
z
" style="fill:#92b1d3;stroke:#92b1d3;stroke-linejoin:miter;"/>
   </g>
   <g id="patch_22">
    <path clip-path="url(#p47321ed789)" d="M 458.662225 225.153521 
L 494.724975 225.153521 
L 494.724975 34.56 
L 458.662225 34.56 
z
" style="fill:#b6cbe2;stroke:#b6cbe2;stroke-linejoin:miter;"/>
   </g>
   <g id="patch_23">
    <path clip-path="url(#p47321ed789)" d="M 502.57185 256.32 
L 680.508695 256.32 
L 680.508695 216.946068 
L 502.57185 216.946068 
z
" style="fill:#69d7fc;stroke:#69d7fc;stroke-linejoin:miter;"/>
   </g>
   <g id="patch_24">
    <path clip-path="url(#p47321ed789)" d="M 502.57185 215.477459 
L 680.508695 215.477459 
L 680.508695 34.56 
L 502.57185 34.56 
z
" style="fill:#9be4fd;stroke:#9be4fd;stroke-linejoin:miter;"/>
   </g>
   <g id="patch_25">
    <path clip-path="url(#p47321ed789)" d="M 688.35557 256.32 
L 699.101861 256.32 
L 699.101861 164.817865 
L 688.35557 164.817865 
z
" style="fill:#92b1d3;stroke:#92b1d3;stroke-linejoin:miter;"/>
   </g>
   <g id="patch_26">
    <path clip-path="url(#p47321ed789)" d="M 688.35557 163.349255 
L 699.101861 163.349255 
L 699.101861 34.56 
L 688.35557 34.56 
z
" style="fill:#b6cbe2;stroke:#b6cbe2;stroke-linejoin:miter;"/>
   </g>
   <g id="patch_27">
    <path clip-path="url(#p47321ed789)" d="M 706.948736 256.32 
L 713.796752 256.32 
L 713.796752 149.225598 
L 706.948736 149.225598 
z
" style="fill:#87d6de;stroke:#87d6de;stroke-linejoin:miter;"/>
   </g>
   <g id="patch_28">
    <path clip-path="url(#p47321ed789)" d="M 706.948736 147.756988 
L 713.796752 147.756988 
L 713.796752 34.56 
L 706.948736 34.56 
z
" style="fill:#afe4e9;stroke:#afe4e9;stroke-linejoin:miter;"/>
   </g>
   <g id="patch_29">
    <path clip-path="url(#p47321ed789)" d="M 721.643627 256.32 
L 743.411468 256.32 
L 743.411468 194.132478 
L 721.643627 194.132478 
z
" style="fill:#fdc168;stroke:#fdc168;stroke-linejoin:miter;"/>
   </g>
   <g id="patch_30">
    <path clip-path="url(#p47321ed789)" d="M 721.643627 192.663869 
L 743.411468 192.663869 
L 743.411468 34.56 
L 721.643627 34.56 
z
" style="fill:#fed59a;stroke:#fed59a;stroke-linejoin:miter;"/>
   </g>
   <g id="patch_31">
    <path clip-path="url(#p47321ed789)" d="M 751.258343 256.32 
L 764.415016 256.32 
L 764.415016 176.287646 
L 751.258343 176.287646 
z
" style="fill:#abbaaf;stroke:#abbaaf;stroke-linejoin:miter;"/>
   </g>
   <g id="patch_32">
    <path clip-path="url(#p47321ed789)" d="M 751.258343 174.819036 
L 764.415016 174.819036 
L 764.415016 34.56 
L 751.258343 34.56 
z
" style="fill:#c7d1ca;stroke:#c7d1ca;stroke-linejoin:miter;"/>
   </g>
   <g id="patch_33">
    <path clip-path="url(#p47321ed789)" d="M 772.261891 256.32 
L 818.553889 256.32 
L 818.553889 110.886969 
L 772.261891 110.886969 
z
" style="fill:#87d6de;stroke:#87d6de;stroke-linejoin:miter;"/>
   </g>
   <g id="patch_34">
    <path clip-path="url(#p47321ed789)" d="M 772.261891 109.41836 
L 818.553889 109.41836 
L 818.553889 34.56 
L 772.261891 34.56 
z
" style="fill:#afe4e9;stroke:#afe4e9;stroke-linejoin:miter;"/>
   </g>
   <g id="patch_35">
    <path clip-path="url(#p47321ed789)" d="M 826.400764 256.32 
L 848.707965 256.32 
L 848.707965 205.150097 
L 826.400764 205.150097 
z
" style="fill:#9dc8a0;stroke:#9dc8a0;stroke-linejoin:miter;"/>
   </g>
   <g id="patch_36">
    <path clip-path="url(#p47321ed789)" d="M 826.400764 203.681488 
L 848.707965 203.681488 
L 848.707965 34.56 
L 826.400764 34.56 
z
" style="fill:#bedac0;stroke:#bedac0;stroke-linejoin:miter;"/>
   </g>
   <g id="patch_37">
    <path clip-path="url(#p47321ed789)" d="M 856.55484 256.32 
L 888.176237 256.32 
L 888.176237 192.443012 
L 856.55484 192.443012 
z
" style="fill:#abbaaf;stroke:#abbaaf;stroke-linejoin:miter;"/>
   </g>
   <g id="patch_38">
    <path clip-path="url(#p47321ed789)" d="M 856.55484 190.974402 
L 888.176237 190.974402 
L 888.176237 34.56 
L 856.55484 34.56 
z
" style="fill:#c7d1ca;stroke:#c7d1ca;stroke-linejoin:miter;"/>
   </g>
   <g id="patch_39">
    <path clip-path="url(#p47321ed789)" d="M 896.023112 256.32 
L 911.180998 256.32 
L 911.180998 244.26479 
L 896.023112 244.26479 
z
" style="fill:#92b1d3;stroke:#92b1d3;stroke-linejoin:miter;"/>
   </g>
   <g id="patch_40">
    <path clip-path="url(#p47321ed789)" d="M 896.023112 242.796181 
L 911.180998 242.796181 
L 911.180998 34.56 
L 896.023112 34.56 
z
" style="fill:#b6cbe2;stroke:#b6cbe2;stroke-linejoin:miter;"/>
   </g>
   <g id="patch_41">
    <path clip-path="url(#p47321ed789)" d="M 919.027873 256.32 
L 926.883936 256.32 
L 926.883936 221.482252 
L 919.027873 221.482252 
z
" style="fill:#9dc8a0;stroke:#9dc8a0;stroke-linejoin:miter;"/>
   </g>
   <g id="patch_42">
    <path clip-path="url(#p47321ed789)" d="M 919.027873 220.013642 
L 926.883936 220.013642 
L 926.883936 34.56 
L 919.027873 34.56 
z
" style="fill:#bedac0;stroke:#bedac0;stroke-linejoin:miter;"/>
   </g>
   <g id="patch_43">
    <path clip-path="url(#p47321ed789)" d="M 934.730811 256.32 
L 947.169577 256.32 
L 947.169577 217.518675 
L 934.730811 217.518675 
z
" style="fill:#fdc168;stroke:#fdc168;stroke-linejoin:miter;"/>
   </g>
   <g id="patch_44">
    <path clip-path="url(#p47321ed789)" d="M 934.730811 216.050066 
L 947.169577 216.050066 
L 947.169577 34.56 
L 934.730811 34.56 
z
" style="fill:#fed59a;stroke:#fed59a;stroke-linejoin:miter;"/>
   </g>
   <g id="patch_45">
    <path clip-path="url(#p47321ed789)" d="M 955.016452 256.32 
L 966.636878 256.32 
L 966.636878 63.318228 
L 955.016452 63.318228 
z
" style="fill:#87d6de;stroke:#87d6de;stroke-linejoin:miter;"/>
   </g>
   <g id="patch_46">
    <path clip-path="url(#p47321ed789)" d="M 955.016452 61.849619 
L 966.636878 61.849619 
L 966.636878 34.56 
L 955.016452 34.56 
z
" style="fill:#afe4e9;stroke:#afe4e9;stroke-linejoin:miter;"/>
   </g>
   <g id="patch_47">
    <path clip-path="url(#p47321ed789)" d="M 974.483753 256.32 
L 1058.289195 256.32 
L 1058.289195 175.732266 
L 974.483753 175.732266 
z
" style="fill:#fdc168;stroke:#fdc168;stroke-linejoin:miter;"/>
   </g>
   <g id="patch_48">
    <path clip-path="url(#p47321ed789)" d="M 974.483753 174.263657 
L 1058.289195 174.263657 
L 1058.289195 34.56 
L 974.483753 34.56 
z
" style="fill:#fed59a;stroke:#fed59a;stroke-linejoin:miter;"/>
   </g>
   <g id="patch_49">
    <path clip-path="url(#p47321ed789)" d="M 1066.13607 256.32 
L 1082.112296 256.32 
L 1082.112296 223.237824 
L 1066.13607 223.237824 
z
" style="fill:#ac99cc;stroke:#ac99cc;stroke-linejoin:miter;"/>
   </g>
   <g id="patch_50">
    <path clip-path="url(#p47321ed789)" d="M 1066.13607 221.769214 
L 1082.112296 221.769214 
L 1082.112296 34.56 
L 1066.13607 34.56 
z
" style="fill:#c7bbdd;stroke:#c7bbdd;stroke-linejoin:miter;"/>
   </g>
   <g id="patch_51">
    <path clip-path="url(#p47321ed789)" d="M 1089.959171 256.32 
L 1097.335389 256.32 
L 1097.335389 209.440037 
L 1089.959171 209.440037 
z
" style="fill:#fdc168;stroke:#fdc168;stroke-linejoin:miter;"/>
   </g>
   <g id="patch_52">
    <path clip-path="url(#p47321ed789)" d="M 1089.959171 207.971428 
L 1097.335389 207.971428 
L 1097.335389 34.56 
L 1089.959171 34.56 
z
" style="fill:#fed59a;stroke:#fed59a;stroke-linejoin:miter;"/>
   </g>
   <g id="patch_53">
    <path clip-path="url(#p47321ed789)" d="M 1105.182264 256.32 
L 1118.045078 256.32 
L 1118.045078 174.459261 
L 1105.182264 174.459261 
z
" style="fill:#9dc8a0;stroke:#9dc8a0;stroke-linejoin:miter;"/>
   </g>
   <g id="patch_54">
    <path clip-path="url(#p47321ed789)" d="M 1105.182264 172.990651 
L 1118.045078 172.990651 
L 1118.045078 34.56 
L 1105.182264 34.56 
z
" style="fill:#bedac0;stroke:#bedac0;stroke-linejoin:miter;"/>
   </g>
   <g id="patch_55">
    <path clip-path="url(#p47321ed789)" d="M 1125.891953 256.32 
L 1132.215489 256.32 
L 1132.215489 231.828781 
L 1125.891953 231.828781 
z
" style="fill:#92b1d3;stroke:#92b1d3;stroke-linejoin:miter;"/>
   </g>
   <g id="patch_56">
    <path clip-path="url(#p47321ed789)" d="M 1125.891953 230.360171 
L 1132.215489 230.360171 
L 1132.215489 34.56 
L 1125.891953 34.56 
z
" style="fill:#b6cbe2;stroke:#b6cbe2;stroke-linejoin:miter;"/>
   </g>
   <g id="patch_57">
    <path clip-path="url(#p47321ed789)" d="M 1140.062364 256.32 
L 1152.441614 256.32 
L 1152.441614 140.746452 
L 1140.062364 140.746452 
z
" style="fill:#ac99cc;stroke:#ac99cc;stroke-linejoin:miter;"/>
   </g>
   <g id="patch_58">
    <path clip-path="url(#p47321ed789)" d="M 1140.062364 139.277843 
L 1152.441614 139.277843 
L 1152.441614 34.56 
L 1140.062364 34.56 
z
" style="fill:#c7bbdd;stroke:#c7bbdd;stroke-linejoin:miter;"/>
   </g>
   <g id="patch_59">
    <path clip-path="url(#p47321ed789)" d="M 1160.288489 256.32 
L 1166.4 256.32 
L 1166.4 240.364628 
L 1160.288489 240.364628 
z
" style="fill:#abbaaf;stroke:#abbaaf;stroke-linejoin:miter;"/>
   </g>
   <g id="patch_60">
    <path clip-path="url(#p47321ed789)" d="M 1160.288489 238.896019 
L 1166.4 238.896019 
L 1166.4 34.56 
L 1160.288489 34.56 
z
" style="fill:#c7d1ca;stroke:#c7d1ca;stroke-linejoin:miter;"/>
   </g>
   <g id="patch_61">
    <path d="M 162 256.32 
L 162 34.56 
" style="fill:none;stroke:#cccccc;stroke-linecap:square;stroke-linejoin:miter;"/>
   </g>
   <g id="patch_62">
    <path d="M 1166.4 256.32 
L 1166.4 34.56 
" style="fill:none;stroke:#cccccc;stroke-linecap:square;stroke-linejoin:miter;"/>
   </g>
   <g id="patch_63">
    <path d="M 162 256.32 
L 1166.4 256.32 
" style="fill:none;stroke:#cccccc;stroke-linecap:square;stroke-linejoin:miter;"/>
   </g>
   <g id="patch_64">
    <path d="M 162 34.56 
L 1166.4 34.56 
" style="fill:none;stroke:#cccccc;stroke-linecap:square;stroke-linejoin:miter;"/>
   </g>
   <g id="text_32">
    <!-- F -->
    <g style="fill:#262626;" transform="translate(163.677986 161.525814)scale(0.0833 -0.0833)">
     <use xlink:href="#ArialMT-70"/>
    </g>
   </g>
   <g id="text_33">
    <!-- M -->
    <g style="fill:#262626;" transform="translate(162.752575 49.91151)scale(0.0833 -0.0833)">
     <use xlink:href="#ArialMT-77"/>
    </g>
   </g>
   <g id="text_34">
    <!-- F -->
    <g style="fill:#262626;" transform="translate(189.591573 155.814806)scale(0.0833 -0.0833)">
     <use xlink:href="#ArialMT-70"/>
    </g>
   </g>
   <g id="text_35">
    <!-- M -->
    <g style="fill:#262626;" transform="translate(188.666162 44.200501)scale(0.0833 -0.0833)">
     <use xlink:href="#ArialMT-77"/>
    </g>
   </g>
   <g id="text_36">
    <!-- F -->
    <g style="fill:#262626;" transform="translate(235.630742 244.876655)scale(0.0833 -0.0833)">
     <use xlink:href="#ArialMT-70"/>
    </g>
   </g>
   <g id="text_37">
    <!-- M -->
    <g style="fill:#262626;" transform="translate(234.705331 133.262351)scale(0.0833 -0.0833)">
     <use xlink:href="#ArialMT-77"/>
    </g>
   </g>
   <g id="text_38">
    <!-- F -->
    <g style="fill:#262626;" transform="translate(270.810168 207.209364)scale(0.0833 -0.0833)">
     <use xlink:href="#ArialMT-70"/>
    </g>
   </g>
   <g id="text_39">
    <!-- M -->
    <g style="fill:#262626;" transform="translate(269.884757 95.595059)scale(0.0833 -0.0833)">
     <use xlink:href="#ArialMT-77"/>
    </g>
   </g>
   <g id="text_40">
    <!-- F -->
    <g style="fill:#262626;" transform="translate(285.079152 235.884031)scale(0.0833 -0.0833)">
     <use xlink:href="#ArialMT-70"/>
    </g>
   </g>
   <g id="text_41">
    <!-- M -->
    <g style="fill:#262626;" transform="translate(284.153741 124.269727)scale(0.0833 -0.0833)">
     <use xlink:href="#ArialMT-77"/>
    </g>
   </g>
   <g id="text_42">
    <!-- F -->
    <g style="fill:#262626;" transform="translate(304.055449 212.135546)scale(0.0833 -0.0833)">
     <use xlink:href="#ArialMT-70"/>
    </g>
   </g>
   <g id="text_43">
    <!-- M -->
    <g style="fill:#262626;" transform="translate(303.130038 100.521241)scale(0.0833 -0.0833)">
     <use xlink:href="#ArialMT-77"/>
    </g>
   </g>
   <g id="text_44">
    <!-- F -->
    <g style="fill:#262626;" transform="translate(324.549394 242.720616)scale(0.0833 -0.0833)">
     <use xlink:href="#ArialMT-70"/>
    </g>
   </g>
   <g id="text_45">
    <!-- M -->
    <g style="fill:#262626;" transform="translate(323.623983 131.106311)scale(0.0833 -0.0833)">
     <use xlink:href="#ArialMT-77"/>
    </g>
   </g>
   <g id="text_46">
    <!-- F -->
    <g style="fill:#262626;" transform="translate(382.415434 158.333133)scale(0.0833 -0.0833)">
     <use xlink:href="#ArialMT-70"/>
    </g>
   </g>
   <g id="text_47">
    <!-- M -->
    <g style="fill:#262626;" transform="translate(381.490023 46.718828)scale(0.0833 -0.0833)">
     <use xlink:href="#ArialMT-77"/>
    </g>
   </g>
   <g id="text_48">
    <!-- F -->
    <g style="fill:#262626;" transform="translate(441.799122 236.191088)scale(0.0833 -0.0833)">
     <use xlink:href="#ArialMT-70"/>
    </g>
   </g>
   <g id="text_49">
    <!-- M -->
    <g style="fill:#262626;" transform="translate(440.873711 124.576783)scale(0.0833 -0.0833)">
     <use xlink:href="#ArialMT-77"/>
    </g>
   </g>
   <g id="text_50">
    <!-- F -->
    <g style="fill:#262626;" transform="translate(474.149696 243.6245)scale(0.0833 -0.0833)">
     <use xlink:href="#ArialMT-70"/>
    </g>
   </g>
   <g id="text_51">
    <!-- M -->
    <g style="fill:#262626;" transform="translate(473.224285 132.010196)scale(0.0833 -0.0833)">
     <use xlink:href="#ArialMT-77"/>
    </g>
   </g>
   <g id="text_52">
    <!-- F -->
    <g style="fill:#262626;" transform="translate(588.996369 238.786469)scale(0.0833 -0.0833)">
     <use xlink:href="#ArialMT-70"/>
    </g>
   </g>
   <g id="text_53">
    <!-- M -->
    <g style="fill:#262626;" transform="translate(588.070958 127.172165)scale(0.0833 -0.0833)">
     <use xlink:href="#ArialMT-77"/>
    </g>
   </g>
   <g id="text_54">
    <!-- F -->
    <g style="fill:#262626;" transform="translate(691.184811 212.722368)scale(0.0833 -0.0833)">
     <use xlink:href="#ArialMT-70"/>
    </g>
   </g>
   <g id="text_55">
    <!-- M -->
    <g style="fill:#262626;" transform="translate(690.259401 101.108063)scale(0.0833 -0.0833)">
     <use xlink:href="#ArialMT-77"/>
    </g>
   </g>
   <g id="text_56">
    <!-- F -->
    <g style="fill:#262626;" transform="translate(707.82884 204.926234)scale(0.0833 -0.0833)">
     <use xlink:href="#ArialMT-70"/>
    </g>
   </g>
   <g id="text_57">
    <!-- M -->
    <g style="fill:#262626;" transform="translate(706.903429 93.311929)scale(0.0833 -0.0833)">
     <use xlink:href="#ArialMT-77"/>
    </g>
   </g>
   <g id="text_58">
    <!-- F -->
    <g style="fill:#262626;" transform="translate(729.983644 227.379674)scale(0.0833 -0.0833)">
     <use xlink:href="#ArialMT-70"/>
    </g>
   </g>
   <g id="text_59">
    <!-- M -->
    <g style="fill:#262626;" transform="translate(729.058233 115.76537)scale(0.0833 -0.0833)">
     <use xlink:href="#ArialMT-77"/>
    </g>
   </g>
   <g id="text_60">
    <!-- F -->
    <g style="fill:#262626;" transform="translate(755.292776 218.457258)scale(0.0833 -0.0833)">
     <use xlink:href="#ArialMT-70"/>
    </g>
   </g>
   <g id="text_61">
    <!-- M -->
    <g style="fill:#262626;" transform="translate(754.367365 106.842953)scale(0.0833 -0.0833)">
     <use xlink:href="#ArialMT-77"/>
    </g>
   </g>
   <g id="text_62">
    <!-- F -->
    <g style="fill:#262626;" transform="translate(792.863986 185.75692)scale(0.0833 -0.0833)">
     <use xlink:href="#ArialMT-70"/>
    </g>
   </g>
   <g id="text_63">
    <!-- M -->
    <g style="fill:#262626;" transform="translate(791.938575 74.142615)scale(0.0833 -0.0833)">
     <use xlink:href="#ArialMT-77"/>
    </g>
   </g>
   <g id="text_64">
    <!-- F -->
    <g style="fill:#262626;" transform="translate(835.010461 232.888484)scale(0.0833 -0.0833)">
     <use xlink:href="#ArialMT-70"/>
    </g>
   </g>
   <g id="text_65">
    <!-- M -->
    <g style="fill:#262626;" transform="translate(834.08505 121.274179)scale(0.0833 -0.0833)">
     <use xlink:href="#ArialMT-77"/>
    </g>
   </g>
   <g id="text_66">
    <!-- F -->
    <g style="fill:#262626;" transform="translate(869.821635 226.534941)scale(0.0833 -0.0833)">
     <use xlink:href="#ArialMT-70"/>
    </g>
   </g>
   <g id="text_67">
    <!-- M -->
    <g style="fill:#262626;" transform="translate(868.896224 114.920636)scale(0.0833 -0.0833)">
     <use xlink:href="#ArialMT-77"/>
    </g>
   </g>
   <g id="text_68">
    <!-- F -->
    <g style="fill:#262626;" transform="translate(901.058151 252.44583)scale(0.0833 -0.0833)">
     <use xlink:href="#ArialMT-70"/>
    </g>
   </g>
   <g id="text_69">
    <!-- M -->
    <g style="fill:#262626;" transform="translate(900.13274 140.831526)scale(0.0833 -0.0833)">
     <use xlink:href="#ArialMT-77"/>
    </g>
   </g>
   <g id="text_70">
    <!-- F -->
    <g style="fill:#262626;" transform="translate(920.412 241.054561)scale(0.0833 -0.0833)">
     <use xlink:href="#ArialMT-70"/>
    </g>
   </g>
   <g id="text_71">
    <!-- M -->
    <g style="fill:#262626;" transform="translate(919.486589 129.440256)scale(0.0833 -0.0833)">
     <use xlink:href="#ArialMT-77"/>
    </g>
   </g>
   <g id="text_72">
    <!-- F -->
    <g style="fill:#262626;" transform="translate(938.40629 239.072773)scale(0.0833 -0.0833)">
     <use xlink:href="#ArialMT-70"/>
    </g>
   </g>
   <g id="text_73">
    <!-- M -->
    <g style="fill:#262626;" transform="translate(937.480879 127.458468)scale(0.0833 -0.0833)">
     <use xlink:href="#ArialMT-77"/>
    </g>
   </g>
   <g id="text_74">
    <!-- F -->
    <g style="fill:#262626;" transform="translate(958.282761 161.972549)scale(0.0833 -0.0833)">
     <use xlink:href="#ArialMT-70"/>
    </g>
   </g>
   <g id="text_75">
    <!-- M -->
    <g style="fill:#262626;" transform="translate(957.35735 50.358244)scale(0.0833 -0.0833)">
     <use xlink:href="#ArialMT-77"/>
    </g>
   </g>
   <g id="text_76">
    <!-- F -->
    <g style="fill:#262626;" transform="translate(1013.84257 218.179568)scale(0.0833 -0.0833)">
     <use xlink:href="#ArialMT-70"/>
    </g>
   </g>
   <g id="text_77">
    <!-- M -->
    <g style="fill:#262626;" transform="translate(1012.917159 106.565264)scale(0.0833 -0.0833)">
     <use xlink:href="#ArialMT-77"/>
    </g>
   </g>
   <g id="text_78">
    <!-- F -->
    <g style="fill:#262626;" transform="translate(1071.580279 241.932347)scale(0.0833 -0.0833)">
     <use xlink:href="#ArialMT-70"/>
    </g>
   </g>
   <g id="text_79">
    <!-- M -->
    <g style="fill:#262626;" transform="translate(1070.654868 130.318042)scale(0.0833 -0.0833)">
     <use xlink:href="#ArialMT-77"/>
    </g>
   </g>
   <g id="text_80">
    <!-- F -->
    <g style="fill:#262626;" transform="translate(1091.103376 235.033454)scale(0.0833 -0.0833)">
     <use xlink:href="#ArialMT-70"/>
    </g>
   </g>
   <g id="text_81">
    <!-- M -->
    <g style="fill:#262626;" transform="translate(1090.177965 123.419149)scale(0.0833 -0.0833)">
     <use xlink:href="#ArialMT-77"/>
    </g>
   </g>
   <g id="text_82">
    <!-- F -->
    <g style="fill:#262626;" transform="translate(1109.069767 217.543065)scale(0.0833 -0.0833)">
     <use xlink:href="#ArialMT-70"/>
    </g>
   </g>
   <g id="text_83">
    <!-- M -->
    <g style="fill:#262626;" transform="translate(1108.144356 105.928761)scale(0.0833 -0.0833)">
     <use xlink:href="#ArialMT-77"/>
    </g>
   </g>
   <g id="text_84">
    <!-- F -->
    <g style="fill:#262626;" transform="translate(1126.509817 246.227825)scale(0.0833 -0.0833)">
     <use xlink:href="#ArialMT-70"/>
    </g>
   </g>
   <g id="text_85">
    <!-- M -->
    <g style="fill:#262626;" transform="translate(1125.584406 134.613521)scale(0.0833 -0.0833)">
     <use xlink:href="#ArialMT-77"/>
    </g>
   </g>
   <g id="text_86">
    <!-- F -->
    <g style="fill:#262626;" transform="translate(1143.708085 200.686661)scale(0.0833 -0.0833)">
     <use xlink:href="#ArialMT-70"/>
    </g>
   </g>
   <g id="text_87">
    <!-- M -->
    <g style="fill:#262626;" transform="translate(1142.782674 89.072356)scale(0.0833 -0.0833)">
     <use xlink:href="#ArialMT-77"/>
    </g>
   </g>
   <g id="text_88">
    <!-- F -->
    <g style="fill:#262626;" transform="translate(1160.800341 250.495749)scale(0.0833 -0.0833)">
     <use xlink:href="#ArialMT-70"/>
    </g>
   </g>
   <g id="text_89">
    <!-- M -->
    <g style="fill:#262626;" transform="translate(1159.87493 138.881445)scale(0.0833 -0.0833)">
     <use xlink:href="#ArialMT-77"/>
    </g>
   </g>
  </g>
  <g id="axes_2">
   <g id="matplotlib.axis_3"/>
   <g id="patch_65">
    <path d="M 162 256.32 
L 162 34.56 
" style="fill:none;stroke:#cccccc;stroke-linecap:square;stroke-linejoin:miter;"/>
   </g>
   <g id="patch_66">
    <path d="M 1166.4 256.32 
L 1166.4 34.56 
" style="fill:none;stroke:#cccccc;stroke-linecap:square;stroke-linejoin:miter;"/>
   </g>
   <g id="patch_67">
    <path d="M 162 256.32 
L 1166.4 256.32 
" style="fill:none;stroke:#cccccc;stroke-linecap:square;stroke-linejoin:miter;"/>
   </g>
   <g id="patch_68">
    <path d="M 162 34.56 
L 1166.4 34.56 
" style="fill:none;stroke:#cccccc;stroke-linecap:square;stroke-linejoin:miter;"/>
   </g>
  </g>
  <g id="axes_3">
   <g id="matplotlib.axis_4"/>
   <g id="patch_69">
    <path d="M 162 256.32 
L 162 34.56 
" style="fill:none;stroke:#cccccc;stroke-linecap:square;stroke-linejoin:miter;"/>
   </g>
   <g id="patch_70">
    <path d="M 1166.4 256.32 
L 1166.4 34.56 
" style="fill:none;stroke:#cccccc;stroke-linecap:square;stroke-linejoin:miter;"/>
   </g>
   <g id="patch_71">
    <path d="M 162 256.32 
L 1166.4 256.32 
" style="fill:none;stroke:#cccccc;stroke-linecap:square;stroke-linejoin:miter;"/>
   </g>
   <g id="patch_72">
    <path d="M 162 34.56 
L 1166.4 34.56 
" style="fill:none;stroke:#cccccc;stroke-linecap:square;stroke-linejoin:miter;"/>
   </g>
  </g>
 </g>
 <defs>
  <clipPath id="p47321ed789">
   <rect height="221.76" width="1004.4" x="162" y="34.56"/>
  </clipPath>
 </defs>
</svg>
